<?xml version="1.0" standalone="no"?>
<!DOCTYPE svg PUBLIC "-//W3C//DTD SVG 20010904//EN"
 "http://www.w3.org/TR/2001/REC-SVG-20010904/DTD/svg10.dtd">
<svg version="1.0" xmlns="http://www.w3.org/2000/svg"
 width="1039.000000pt" height="1039.000000pt" viewBox="0 0 1039.000000 1039.000000"
 preserveAspectRatio="xMidYMid meet">

<g transform="translate(0.000000,1039.000000) scale(0.100000,-0.100000)"
fill="#000000" stroke="none">
<path d="M750 9640 c0 -30 -27 -91 -53 -118 -30 -33 -90 -62 -127 -62 l-30 0
0 -214 0 -213 38 -6 c100 -16 172 -103 172 -207 0 -104 -59 -179 -159 -203
l-51 -12 0 -212 0 -213 30 0 c37 0 97 -29 127 -62 54 -57 69 -167 34 -237 -34
-66 -115 -121 -178 -121 -10 0 -13 -48 -13 -209 l0 -209 51 -12 c125 -30 194
-168 144 -288 -29 -68 -102 -122 -165 -122 l-30 0 0 -214 0 -213 38 -6 c59
-10 126 -58 151 -109 61 -128 -16 -287 -147 -305 l-42 -6 0 -213 0 -214 28 0
c36 -1 102 -31 129 -61 54 -59 69 -168 34 -238 -34 -66 -115 -121 -178 -121
-10 0 -13 -48 -13 -209 l0 -209 51 -12 c125 -30 194 -168 144 -288 -29 -68
-102 -122 -165 -122 l-30 0 0 -215 0 -215 23 0 c42 0 123 -49 153 -92 41 -58
46 -154 12 -218 -30 -55 -91 -100 -146 -107 l-42 -6 0 -213 0 -214 28 0 c45 0
114 -41 146 -88 40 -57 48 -149 18 -209 -35 -68 -115 -123 -179 -123 -10 0
-13 -48 -13 -209 l0 -209 51 -12 c94 -23 159 -105 159 -200 0 -110 -67 -192
-170 -209 l-35 -6 -3 -213 -2 -212 23 0 c42 0 123 -49 153 -92 41 -58 46 -154
12 -218 -30 -55 -91 -100 -146 -107 l-42 -6 0 -212 0 -212 41 -6 c82 -11 155
-85 166 -167 l6 -40 212 0 212 0 6 42 c7 55 52 116 107 146 64 34 160 29 218
-12 43 -30 92 -111 92 -153 l0 -23 212 2 213 3 6 35 c17 103 99 170 209 170
95 0 178 -67 200 -162 l12 -48 208 0 208 0 7 40 c8 48 38 93 88 134 36 29 45
31 117 31 71 0 82 -3 122 -30 47 -33 88 -101 88 -147 l0 -28 214 0 213 0 6 42
c7 55 52 116 107 146 64 34 160 29 218 -12 43 -30 92 -111 92 -153 l0 -23 215
0 215 0 0 30 c0 63 54 136 122 165 120 50 258 -19 288 -144 l12 -51 209 0
c161 0 209 3 209 13 0 63 55 144 121 178 74 37 191 17 246 -42 27 -30 53 -90
53 -124 l0 -25 214 0 213 0 6 42 c18 131 177 208 305 147 51 -25 99 -92 109
-151 l6 -38 213 0 214 0 0 30 c0 63 54 136 122 165 120 50 258 -19 288 -144
l12 -51 209 0 c161 0 209 3 209 13 0 63 55 144 121 178 70 35 179 20 238 -34
30 -27 60 -93 61 -129 l0 -28 214 0 213 0 6 42 c18 131 177 208 305 147 51
-25 99 -92 109 -151 l6 -38 213 0 214 0 0 30 c0 37 29 97 62 127 27 26 88 53
118 53 19 0 20 6 20 214 l0 213 -38 7 c-21 3 -57 19 -80 36 -56 40 -82 94 -82
168 0 104 57 178 158 205 l42 11 0 212 0 211 -41 6 c-50 7 -105 49 -136 103
-25 43 -31 131 -12 181 18 49 79 103 136 119 l53 15 0 209 0 208 -32 7 c-53
11 -106 46 -135 88 -22 31 -28 54 -31 107 -4 73 14 124 60 167 27 26 88 53
118 53 19 0 20 6 20 214 l0 213 -38 7 c-52 8 -117 57 -142 105 -27 54 -27 140
1 198 26 53 69 88 132 104 l47 13 0 213 0 213 -25 0 c-54 0 -124 50 -156 112
-21 42 -25 129 -8 175 22 59 88 111 161 127 l28 6 0 209 0 209 -41 10 c-52 13
-100 46 -130 90 -33 49 -39 153 -11 208 33 64 102 114 157 114 l25 0 0 214 0
213 -35 6 c-53 9 -104 44 -136 96 -24 37 -29 56 -29 105 0 108 54 181 153 207
l47 13 0 213 0 213 -25 0 c-54 0 -124 50 -156 112 -23 44 -25 134 -6 181 20
47 89 105 142 118 l45 11 0 208 0 208 -41 10 c-52 13 -100 46 -130 90 -33 49
-39 153 -11 208 33 64 102 114 157 114 l25 0 0 214 0 213 -38 7 c-54 8 -115
56 -141 108 -60 125 12 282 139 303 l40 7 0 214 0 214 -25 0 c-76 0 -175 99
-175 175 l0 25 -213 0 -213 0 -13 -47 c-25 -97 -100 -153 -201 -153 -101 0
-192 71 -206 162 l-7 38 -213 0 -214 0 0 -25 c0 -33 -31 -94 -62 -121 -47 -43
-87 -56 -158 -52 -101 5 -167 60 -192 157 l-10 41 -209 0 -209 0 -6 -27 c-16
-74 -68 -140 -127 -162 -46 -17 -133 -13 -175 8 -62 32 -112 102 -112 156 l0
25 -213 0 -213 0 -13 -47 c-25 -97 -100 -153 -201 -153 -101 0 -192 71 -206
162 l-7 38 -213 0 c-208 0 -214 -1 -214 -20 0 -30 -27 -91 -53 -118 -43 -46
-94 -64 -167 -60 -101 5 -167 60 -192 157 l-10 41 -209 0 -208 0 -15 -54 c-12
-39 -27 -64 -56 -90 -52 -46 -77 -56 -148 -56 -97 0 -188 72 -199 159 l-6 41
-211 0 -212 0 -11 -42 c-36 -132 -173 -196 -300 -139 -50 23 -101 89 -109 143
l-7 38 -213 0 c-208 0 -214 -1 -214 -20 0 -30 -27 -91 -53 -118 -43 -46 -94
-64 -167 -60 -53 3 -76 9 -107 31 -42 29 -77 82 -88 135 l-7 32 -208 0 -209 0
-15 -54 c-17 -56 -71 -117 -122 -136 -43 -17 -131 -12 -173 10 -52 26 -99 85
-109 135 l-8 40 -211 3 -211 2 -6 -33 c-11 -57 -59 -122 -108 -146 -59 -28
-144 -28 -199 -1 -48 25 -97 90 -105 142 l-7 38 -213 0 c-208 0 -214 -1 -214
-20z m753 -452 c27 -1 27 -2 27 -64 0 -50 -3 -64 -15 -64 -9 0 -15 9 -15 23 0
32 -36 86 -65 97 -33 13 -74 -6 -82 -38 -8 -32 19 -67 96 -121 35 -24 72 -58
82 -75 36 -59 16 -131 -45 -160 -39 -19 -134 -21 -170 -5 -20 9 -29 9 -41 -1
-13 -11 -15 -3 -15 69 0 44 4 81 9 81 5 0 14 -20 20 -44 15 -61 49 -99 89 -99
55 0 86 46 66 98 -4 8 -34 35 -68 59 -87 63 -108 88 -113 138 -4 34 0 49 17
71 32 40 56 48 130 41 36 -3 77 -5 93 -6z m4220 0 c27 -1 27 -2 27 -64 0 -50
-3 -64 -15 -64 -9 0 -15 9 -15 23 0 32 -36 86 -65 97 -33 13 -74 -6 -82 -38
-8 -32 19 -67 96 -121 35 -24 72 -58 82 -75 36 -59 16 -131 -45 -160 -39 -19
-134 -21 -170 -5 -20 9 -29 9 -41 -1 -13 -11 -15 -3 -15 69 0 44 4 81 9 81 5
0 14 -20 20 -44 15 -61 49 -99 89 -99 55 0 86 46 66 98 -4 8 -34 35 -68 59
-87 63 -108 88 -113 138 -4 34 0 49 17 71 32 40 56 48 130 41 36 -3 77 -5 93
-6z m1105 -8 c26 -16 32 -17 32 -5 0 8 7 15 15 15 12 0 15 -14 15 -70 0 -53
-3 -70 -14 -70 -8 0 -16 15 -20 38 -3 21 -16 48 -28 59 -64 60 -134 46 -171
-34 -29 -64 -30 -208 -2 -267 23 -48 71 -72 110 -54 23 10 25 16 25 75 0 61
-1 63 -32 77 -32 14 -28 14 66 15 95 1 98 0 83 -17 -13 -14 -17 -38 -17 -90 0
-67 -10 -92 -24 -57 -4 12 -11 12 -48 -5 -86 -39 -211 -17 -255 46 -79 114
-46 281 66 341 58 30 151 32 199 3z m-5050 -6 l-28 -15 0 -145 c0 -169 10
-208 59 -219 40 -9 82 12 101 50 15 32 27 244 16 290 -3 13 -19 31 -34 39 -26
15 -25 15 37 16 l65 0 -22 -20 c-20 -19 -22 -30 -22 -148 0 -144 -9 -188 -46
-223 -23 -21 -35 -24 -104 -24 -129 0 -150 33 -150 243 0 133 -1 140 -22 155
-22 15 -17 16 77 16 94 0 98 -1 73 -15z m567 2 c39 -17 55 -42 55 -88 0 -42
-23 -76 -63 -93 l-31 -13 32 -16 c31 -16 37 -28 60 -126 8 -31 12 -35 38 -32
l29 2 -24 -20 c-23 -20 -94 -28 -117 -12 -18 12 -31 44 -39 97 -11 75 -30 105
-67 105 -16 0 -18 -11 -18 -84 0 -75 2 -85 23 -99 21 -15 16 -16 -73 -16 -89
0 -94 1 -72 16 21 15 22 20 22 188 0 168 -1 173 -22 188 -21 15 -14 16 105 16
88 1 138 -3 162 -13z m429 -178 c42 -106 84 -198 93 -205 15 -10 -1 -12 -82
-12 -79 0 -96 2 -80 11 11 6 22 12 24 14 1 1 -7 32 -19 68 l-22 66 -57 0 -57
0 -17 -47 c-23 -65 -22 -81 11 -96 25 -11 24 -12 -32 -15 -62 -3 -82 4 -54 19
9 5 49 91 88 192 40 100 74 185 77 190 2 4 15 7 28 7 21 0 31 -19 99 -192z
m310 180 c-21 -10 -22 -17 -26 -207 -3 -162 -7 -202 -21 -228 -23 -44 -58 -65
-115 -70 -47 -4 -47 -4 -20 12 47 27 52 48 56 237 5 206 1 241 -31 256 -17 8
-1 11 78 11 76 0 95 -3 79 -11z m530 -2 c45 -19 66 -52 66 -102 0 -74 -60
-124 -150 -124 l-50 0 0 -70 c0 -69 0 -70 33 -84 30 -14 26 -14 -73 -15 -98 0
-104 1 -82 16 21 15 22 20 22 188 0 168 -1 173 -22 188 -21 15 -15 16 100 16
83 1 133 -3 156 -13z m421 0 c39 -17 55 -42 55 -88 0 -42 -23 -76 -63 -93
l-31 -13 32 -16 c31 -16 38 -30 60 -126 8 -33 11 -35 48 -35 l39 0 76 190 c69
173 78 190 101 193 25 3 29 -5 102 -190 41 -106 84 -198 93 -205 15 -10 -1
-12 -82 -12 -79 0 -96 2 -80 11 11 6 22 12 24 14 1 1 -7 32 -19 68 l-22 66
-57 0 -57 0 -17 -47 c-23 -65 -22 -81 11 -96 25 -11 24 -12 -33 -15 -36 -2
-61 1 -63 7 -2 7 -12 5 -25 -4 -22 -16 -94 -20 -113 -7 -18 12 -31 44 -39 97
-11 75 -30 105 -67 105 -16 0 -18 -11 -18 -84 0 -75 2 -85 23 -99 21 -15 16
-16 -73 -16 -89 0 -94 1 -72 16 21 15 22 20 22 188 0 168 -1 173 -22 188 -21
15 -14 16 105 16 88 1 138 -3 162 -13z m728 -3 c-21 -14 -23 -24 -23 -94 l0
-80 28 15 c30 15 112 114 112 134 0 6 -12 18 -27 26 -27 15 -25 15 50 16 42 0
77 -3 77 -8 0 -4 -13 -13 -29 -20 -16 -7 -50 -38 -75 -69 -42 -51 -45 -58 -33
-77 8 -12 41 -63 73 -115 32 -51 65 -96 71 -98 35 -14 4 -23 -74 -23 -74 0
-84 2 -69 13 17 12 14 19 -35 100 -30 48 -57 87 -61 87 -5 0 -8 -38 -8 -84 0
-75 2 -85 23 -99 21 -15 16 -16 -73 -16 -89 0 -94 1 -72 16 21 15 22 20 22
188 0 168 -1 173 -22 188 -22 15 -17 16 72 16 89 0 94 -1 73 -16z m561 -175
c42 -106 84 -198 93 -205 15 -10 -1 -12 -82 -12 -79 0 -96 2 -80 11 11 6 22
12 24 14 1 1 -7 32 -19 68 l-22 66 -57 0 -57 0 -17 -47 c-23 -65 -22 -81 11
-96 25 -11 24 -12 -32 -15 -62 -3 -82 4 -54 19 9 5 49 91 88 192 40 100 74
185 77 190 2 4 15 7 28 7 21 0 31 -19 99 -192z m689 175 c-21 -14 -23 -24 -23
-99 l0 -84 70 0 70 0 0 88 c0 82 -2 90 -22 100 -18 8 -2 11 77 11 79 0 95 -3
78 -11 -23 -11 -23 -14 -23 -193 0 -179 0 -182 23 -193 17 -8 1 -11 -78 -11
-79 0 -95 3 -77 11 20 10 22 18 22 100 l0 88 -70 0 -70 0 0 -84 c0 -75 2 -85
23 -99 21 -15 16 -16 -73 -16 -89 0 -94 1 -72 16 21 15 22 20 22 188 0 168 -1
173 -22 188 -22 15 -17 16 72 16 89 0 94 -1 73 -16z m1252 3 c39 -17 55 -42
55 -88 0 -42 -23 -76 -63 -93 l-31 -13 32 -16 c31 -16 37 -28 60 -126 8 -31
12 -35 38 -32 l29 2 -24 -20 c-23 -20 -94 -28 -117 -12 -18 12 -31 44 -39 97
-11 75 -30 105 -67 105 -16 0 -18 -11 -18 -84 0 -75 2 -85 23 -99 21 -15 16
-16 -73 -16 -89 0 -94 1 -72 16 21 15 22 20 22 188 0 168 -1 173 -22 188 -21
15 -14 16 105 16 88 1 138 -3 162 -13z m429 -178 c42 -106 84 -198 93 -205 15
-10 -1 -12 -82 -12 -79 0 -96 2 -80 11 11 6 22 12 24 14 1 1 -7 32 -19 68
l-22 66 -57 0 -57 0 -17 -47 c-23 -65 -22 -81 11 -96 25 -11 24 -12 -32 -15
-62 -3 -82 4 -54 19 9 5 49 91 88 192 40 100 74 185 77 190 2 4 15 7 28 7 21
0 31 -19 99 -192z m348 62 l103 -130 3 98 c4 120 0 135 -35 149 -25 10 -19 11
42 11 56 1 66 -1 48 -10 -30 -15 -33 -32 -33 -225 0 -163 -1 -173 -19 -173
-13 0 -60 51 -140 151 l-121 152 0 -125 c0 -128 4 -144 45 -166 16 -9 8 -11
-44 -12 l-65 0 22 20 c21 20 22 29 22 189 0 163 -1 169 -22 184 -22 15 -21 16
34 16 l56 1 104 -130z m604 108 c-3 -13 -6 -44 -6 -70 0 -27 -3 -48 -8 -48 -4
0 -15 23 -25 51 -15 41 -25 53 -52 65 -19 8 -37 14 -40 14 -7 0 -6 -329 1
-356 3 -13 19 -26 37 -32 26 -8 8 -10 -88 -10 -112 0 -118 1 -87 14 l32 14 0
186 0 185 -22 -6 c-33 -10 -66 -50 -74 -89 -3 -19 -12 -37 -20 -40 -11 -4 -14
9 -14 69 l0 75 186 0 186 0 -6 -22z m237 5 c-21 -14 -23 -24 -23 -99 l0 -84
70 0 70 0 0 88 c0 82 -2 90 -22 100 -18 8 -2 11 77 11 79 0 95 -3 78 -11 -23
-11 -23 -14 -23 -193 0 -179 0 -182 23 -193 17 -8 1 -11 -78 -11 -79 0 -95 3
-77 11 20 10 22 18 22 100 l0 88 -70 0 -70 0 0 -84 c0 -75 2 -85 23 -99 21
-15 16 -16 -73 -16 -89 0 -94 1 -72 16 21 15 22 20 22 188 0 168 -1 173 -22
188 -22 15 -17 16 72 16 89 0 94 -1 73 -16z m-373 -4168 l0 -3485 -3310 0
-3310 0 0 3485 0 3485 3310 0 3310 0 0 -3485z m-7127 3438 c-95 -2 -251 -2
-345 0 -95 1 -18 3 172 3 190 0 267 -2 173 -3z m7980 0 c-95 -2 -251 -2 -345
0 -95 1 -18 3 172 3 190 0 267 -2 173 -3z m-7985 -830 c-93 -2 -243 -2 -335 0
-93 1 -17 3 167 3 184 0 260 -2 168 -3z m7980 0 c-93 -2 -243 -2 -335 0 -93 1
-17 3 167 3 184 0 260 -2 168 -3z m-7980 -820 c-93 -2 -243 -2 -335 0 -93 1
-17 3 167 3 184 0 260 -2 168 -3z m7980 0 c-93 -2 -243 -2 -335 0 -93 1 -17 3
167 3 184 0 260 -2 168 -3z m-7980 -830 c-93 -2 -243 -2 -335 0 -93 1 -17 3
167 3 184 0 260 -2 168 -3z m7980 0 c-93 -2 -243 -2 -335 0 -93 1 -17 3 167 3
184 0 260 -2 168 -3z m-7980 -830 c-93 -2 -243 -2 -335 0 -93 1 -17 3 167 3
184 0 260 -2 168 -3z m7980 0 c-93 -2 -243 -2 -335 0 -93 1 -17 3 167 3 184 0
260 -2 168 -3z m-7980 -830 c-93 -2 -243 -2 -335 0 -93 1 -17 3 167 3 184 0
260 -2 168 -3z m7980 0 c-93 -2 -243 -2 -335 0 -93 1 -17 3 167 3 184 0 260
-2 168 -3z m-7980 -830 c-93 -2 -243 -2 -335 0 -93 1 -17 3 167 3 184 0 260
-2 168 -3z m7980 0 c-93 -2 -243 -2 -335 0 -93 1 -17 3 167 3 184 0 260 -2
168 -3z m-7980 -820 c-93 -2 -243 -2 -335 0 -93 1 -17 3 167 3 184 0 260 -2
168 -3z m7980 -10 c-93 -2 -243 -2 -335 0 -93 1 -17 3 167 3 184 0 260 -2 168
-3z m-7975 -820 c-95 -2 -251 -2 -345 0 -95 1 -18 3 172 3 190 0 267 -2 173
-3z m8147 -3 c0 -6 -120 -10 -340 -10 -220 0 -340 4 -340 10 0 6 120 10 340
10 220 0 340 -4 340 -10z m-8285 -297 c87 -46 144 -138 153 -249 l5 -61 63 -6
c167 -16 258 -111 273 -288 4 -42 5 -82 3 -88 -2 -7 -35 -11 -85 -11 -65 0
-93 5 -132 24 -53 24 -109 80 -130 130 l-13 30 -20 -40 c-48 -95 -150 -148
-274 -142 l-63 3 -3 53 c-4 66 21 165 54 215 14 21 42 50 63 65 l38 27 -39 27
c-48 36 -84 93 -103 165 -16 61 -20 155 -7 167 15 16 176 0 217 -21z m8133
-33 c7 -113 -48 -237 -124 -282 l-35 -21 28 -17 c81 -50 124 -136 131 -257 l4
-82 -27 -7 c-43 -11 -149 3 -199 27 -50 23 -101 75 -121 123 l-13 30 -20 -40
c-24 -46 -73 -95 -122 -120 -26 -13 -58 -18 -125 -19 l-90 0 1 85 c1 177 94
283 262 297 l69 6 6 64 c13 132 84 229 197 264 14 4 59 7 100 6 l75 -2 3 -55z
m-7281 -642 c-1 -95 -3 -20 -3 167 0 187 2 265 3 173 2 -92 2 -245 0 -340z
m470 0 c-1 -95 -3 -20 -3 167 0 187 2 265 3 173 2 -92 2 -245 0 -340z m473
167 c0 -217 -4 -335 -10 -335 -6 0 -10 118 -10 335 0 217 4 335 10 335 6 0 10
-118 10 -335z m4437 -167 c-1 -95 -3 -20 -3 167 0 187 2 265 3 173 2 -92 2
-245 0 -340z m450 0 c-1 -95 -3 -20 -3 167 0 187 2 265 3 173 2 -92 2 -245 0
-340z m440 0 c-1 -95 -3 -20 -3 167 0 187 2 265 3 173 2 -92 2 -245 0 -340z
m-4324 420 c27 -1 27 -2 27 -64 0 -50 -3 -64 -15 -64 -9 0 -15 9 -15 23 0 32
-36 86 -65 97 -33 13 -74 -6 -82 -38 -8 -32 19 -67 96 -121 35 -24 72 -58 82
-75 36 -59 16 -131 -45 -160 -39 -19 -134 -21 -170 -5 -20 9 -29 9 -41 -1 -13
-11 -15 -3 -15 69 0 44 4 81 9 81 5 0 14 -20 20 -44 15 -61 49 -99 89 -99 55
0 86 46 66 98 -4 8 -34 35 -68 59 -87 63 -108 88 -113 138 -4 34 0 49 17 71
32 40 56 48 130 41 36 -3 77 -5 93 -6z m845 -8 c26 -16 32 -17 32 -5 0 8 7 15
15 15 12 0 15 -14 15 -70 0 -53 -3 -70 -14 -70 -8 0 -16 15 -20 38 -3 21 -16
48 -28 59 -64 60 -134 46 -171 -34 -29 -64 -30 -208 -2 -267 23 -48 71 -72
110 -54 23 10 25 16 25 75 0 61 -1 63 -32 77 -32 14 -28 14 66 15 95 1 98 0
83 -17 -13 -14 -17 -38 -17 -90 0 -67 -10 -92 -24 -57 -4 12 -11 12 -48 -5
-86 -39 -211 -17 -255 46 -79 114 -46 281 66 341 58 30 151 32 199 3z m1011
-5 c35 -36 31 -88 -10 -126 l-31 -29 40 -44 c67 -73 64 -135 -8 -184 -30 -21
-44 -23 -104 -20 -62 3 -71 7 -97 36 -46 51 -34 115 28 153 l34 21 -24 27
c-64 68 -64 140 1 176 39 22 146 16 171 -10z m-1455 1 c45 -19 66 -52 66 -102
0 -74 -60 -124 -150 -124 l-50 0 0 -70 c0 -69 0 -70 33 -84 30 -14 26 -14 -73
-15 -98 0 -104 1 -82 16 21 15 22 20 22 188 0 168 -1 173 -22 188 -21 15 -15
16 100 16 83 1 133 -3 156 -13z m1106 -225 c0 -132 1 -139 23 -154 21 -15 16
-16 -78 -16 -78 0 -96 2 -80 11 38 20 45 40 44 122 -1 94 -6 113 -40 132 l-24
13 30 1 c17 1 48 7 70 15 22 7 43 13 48 14 4 1 7 -61 7 -138z m994 125 c19 -8
37 -23 40 -34 10 -30 -10 -70 -44 -91 l-31 -19 38 -18 c74 -37 81 -100 17
-161 -39 -36 -116 -63 -178 -62 l-41 0 52 18 c61 21 79 34 99 72 33 64 7 129
-52 129 -19 0 -34 5 -34 10 0 6 11 10 24 10 29 0 56 34 56 70 0 52 -47 66 -94
29 -33 -26 -47 -17 -20 12 41 46 108 60 168 35z m-314 -111 c0 -64 4 -115 9
-115 5 0 16 7 25 15 22 23 26 19 26 -30 0 -43 -1 -45 -30 -45 -30 0 -30 -1
-30 -55 l0 -55 -35 0 -35 0 0 55 0 55 -81 0 c-53 0 -79 4 -77 11 6 17 212 279
221 279 4 0 7 -52 7 -115z m-1092 -117 c16 -16 15 -53 -2 -67 -22 -19 -78 -10
-86 14 -13 36 6 65 43 65 18 0 38 -5 45 -12z"/>
<path d="M2212 9168 c-7 -7 -12 -44 -12 -96 l0 -84 32 6 c18 4 40 13 48 22 20
20 20 118 0 138 -22 21 -54 28 -68 14z"/>
<path d="M2622 9060 c-5 -14 -17 -42 -26 -64 -9 -21 -16 -40 -16 -42 0 -2 23
-4 51 -4 57 0 56 -4 19 90 -18 44 -18 44 -28 20z"/>
<path d="M3492 9168 c-8 -8 -12 -46 -12 -110 0 -106 3 -110 54 -87 27 13 46
54 46 101 0 34 -25 98 -39 98 -5 0 -15 2 -23 5 -7 3 -19 0 -26 -7z"/>
<path d="M3902 9168 c-7 -7 -12 -44 -12 -96 l0 -84 32 6 c18 4 40 13 48 22 20
20 20 118 0 138 -22 21 -54 28 -68 14z"/>
<path d="M4302 9060 c-5 -14 -17 -42 -26 -64 -9 -21 -16 -40 -16 -42 0 -2 23
-4 51 -4 57 0 56 -4 19 90 -18 44 -18 44 -28 20z"/>
<path d="M5172 9060 c-5 -14 -17 -42 -26 -64 -9 -21 -16 -40 -16 -42 0 -2 23
-4 51 -4 57 0 56 -4 19 90 -18 44 -18 44 -28 20z"/>
<path d="M7132 9168 c-7 -7 -12 -44 -12 -96 l0 -84 32 6 c18 4 40 13 48 22 20
20 20 118 0 138 -22 21 -54 28 -68 14z"/>
<path d="M7542 9060 c-5 -14 -17 -42 -26 -64 -9 -21 -16 -40 -16 -42 0 -2 23
-4 51 -4 57 0 56 -4 19 90 -18 44 -18 44 -28 20z"/>
<path d="M3005 8366 c28 -24 217 -184 420 -356 204 -172 370 -317 370 -323 0
-12 -48 -76 -57 -77 -4 0 -401 142 -883 316 -751 271 -941 335 -878 296 7 -4
404 -149 882 -321 l870 -314 -20 -40 -21 -40 -61 6 c-93 8 -903 94 -1052 112
-71 8 -224 24 -340 35 -115 11 -222 22 -237 25 -18 3 -28 0 -28 -8 0 -9 236
-37 855 -102 825 -86 855 -90 855 -110 -1 -47 -5 -48 -265 -75 -55 -5 -163
-15 -240 -20 -77 -6 -183 -14 -235 -20 -52 -5 -156 -14 -230 -20 -74 -6 -182
-15 -240 -20 -157 -15 -456 -40 -479 -40 -12 0 -21 -4 -21 -10 0 -13 79 -13
189 0 47 5 149 14 226 20 77 6 185 15 240 21 55 5 181 17 280 25 176 15 256
21 540 43 77 6 156 14 176 17 27 4 38 1 42 -10 11 -28 -20 -42 -144 -64 -68
-12 -189 -34 -269 -48 -135 -24 -451 -99 -755 -178 -153 -40 -362 -114 -457
-162 -38 -19 -68 -35 -68 -37 0 -1 453 -1 1007 1 l1007 2 -24 -25 -23 -25
-984 0 c-736 0 -983 -3 -983 -12 0 -8 244 -9 989 -4 l989 7 42 -21 c23 -12 40
-24 37 -26 -3 -3 -468 -9 -1034 -14 l-1028 -8 1065 1 1065 1 107 -37 c59 -20
114 -37 122 -37 9 0 16 -4 16 -10 0 -7 -407 -11 -1187 -13 l-1188 -2 1249 -3
1248 -2 95 -26 c51 -14 99 -24 105 -22 12 4 -190 59 -287 78 -137 27 -381 119
-400 151 -13 20 19 37 135 72 149 45 287 73 430 87 63 7 120 14 125 16 6 2
-19 1 -55 -2 -116 -10 -2322 -15 -2316 -5 17 28 117 36 431 36 846 0 2063 -9
2010 -15 l-60 -7 51 -1 c28 -1 97 2 155 7 233 21 829 71 847 71 6 0 12 3 12 8
0 4 -692 6 -1537 5 -1218 -2 -1534 0 -1518 10 16 9 363 13 1553 15 993 1 1532
6 1532 12 0 7 -508 10 -1447 11 -1125 0 -1442 3 -1423 12 19 9 380 13 1450 17
l1425 5 -1375 3 c-1044 3 -1368 6 -1345 15 22 8 397 12 1370 14 856 2 1343 7
1349 13 7 7 -425 10 -1240 11 -687 1 -1235 5 -1219 9 17 4 578 8 1247 9 799 1
1219 4 1223 11 4 7 -378 10 -1137 11 -629 1 -1132 5 -1118 9 14 4 528 8 1143
9 832 1 1117 4 1117 12 0 9 -263 11 -1041 7 -712 -4 -1036 -2 -1023 5 11 7
375 12 1040 16 563 4 1026 10 1031 15 4 5 -404 6 -927 3 -547 -3 -928 -2 -919
3 8 5 430 12 938 16 568 4 924 11 928 17 3 6 -294 7 -818 3 -495 -3 -813 -2
-796 3 15 5 390 13 833 17 442 4 806 10 808 13 2 3 -307 5 -687 4 -421 -2
-684 1 -671 6 12 5 331 13 710 18 379 4 662 11 629 14 l-60 6 60 1 c33 1 67 7
75 12 10 6 -128 10 -400 10 -313 0 -410 3 -396 12 15 8 131 9 423 5 256 -4
404 -3 408 3 4 6 -93 10 -267 11 -199 0 -266 3 -248 11 16 7 112 8 280 4 l255
-6 35 35 34 35 -39 0 c-22 0 -96 -6 -165 -14 -120 -14 -227 -24 -492 -46 -117
-10 -286 -29 -466 -52 -72 -9 -106 -7 -91 5 2 2 114 20 249 40 135 21 425 64
645 97 219 33 405 60 412 60 7 0 13 7 13 15 0 10 -8 13 -27 9 -16 -2 -210 -31
-433 -64 -223 -33 -539 -80 -702 -105 -334 -51 -328 -50 -328 -32 0 9 144 52
443 131 243 65 890 239 1437 386 547 148 1069 288 1160 312 130 34 157 44 128
46 -39 3 -224 -45 -1598 -415 -1156 -311 -1582 -423 -1592 -417 -35 22 -25 27
1292 630 254 116 434 204 418 204 -14 0 -66 -18 -115 -41 -442 -204 -1612
-739 -1617 -739 -6 0 -89 88 -94 100 -4 10 36 55 336 390 139 155 250 285 247
289 -9 8 -156 -151 -529 -571 l-77 -86 -79 36 c-44 20 -80 41 -80 47 1 5 29
137 64 293 42 188 59 282 51 282 -7 0 -20 -35 -29 -82 -46 -216 -108 -484
-114 -489 -4 -4 -52 -10 -107 -13 -55 -3 -113 -7 -129 -8 -28 -3 -33 5 -193
292 -91 162 -166 297 -168 299 -2 1 -8 1 -14 0 -5 -2 66 -141 160 -308 93
-167 168 -305 167 -306 -2 -1 -19 -10 -38 -20 -19 -10 -49 -28 -67 -41 -17
-13 -36 -24 -41 -24 -5 0 -196 157 -423 350 -228 192 -421 350 -429 349 -8 0
8 -19 35 -43z m2718 -793 c-7 -2 -21 -2 -30 0 -10 3 -4 5 12 5 17 0 24 -2 18
-5z m-1048 -83 c-3 -5 -21 -10 -38 -10 -24 0 -28 3 -17 10 20 13 63 13 55 0z
m618 -7 c-89 -2 -237 -2 -330 0 -92 1 -19 3 162 3 182 0 257 -2 168 -3z m12
-405 c-35 -6 -639 -11 -1440 -13 -1188 -3 -1376 -2 -1350 10 25 12 252 14
1440 13 927 -1 1389 -4 1350 -10z m-999 -97 c-18 -28 -162 -31 -1146 -29 -954
3 -1003 4 -975 20 28 16 108 17 1078 18 627 0 1046 -4 1043 -9z m-206 -59
c-32 -15 -126 -17 -1042 -20 -575 -1 -1008 1 -1008 6 0 29 65 31 1065 31 960
-1 1018 -2 985 -17z"/>
<path d="M8220 8059 c-96 -15 -227 -35 -290 -44 -63 -9 -185 -27 -270 -40 -85
-13 -231 -35 -325 -49 -335 -50 -771 -116 -798 -122 -22 -5 -26 -9 -17 -19 6
-8 17 -12 23 -10 12 5 247 40 752 114 524 77 1080 161 1108 167 29 6 38 35 10
33 -10 0 -97 -14 -193 -30z"/>
<path d="M6257 7858 c-50 -14 -89 -54 -134 -141 -29 -57 -61 -95 -149 -180
-124 -120 -147 -158 -164 -274 -34 -230 -43 -271 -76 -356 -20 -51 -38 -104
-41 -118 -7 -36 21 -63 59 -55 27 5 28 4 28 -37 0 -23 7 -51 15 -61 8 -11 15
-32 15 -47 0 -14 7 -32 15 -39 21 -17 19 -31 -10 -70 -29 -40 -32 -90 -9 -145
8 -21 18 -68 21 -104 l6 -66 -94 -79 c-52 -44 -101 -87 -110 -97 -53 -58 -172
-418 -214 -639 -8 -47 -22 -107 -29 -135 -8 -27 -24 -103 -35 -167 -12 -64
-28 -143 -36 -175 -8 -31 -15 -74 -15 -96 0 -41 -19 -85 -46 -108 -9 -7 -80
-94 -156 -191 -136 -172 -141 -178 -177 -178 -24 0 -56 -12 -96 -36 -33 -20
-122 -58 -197 -85 -179 -62 -337 -129 -421 -178 -37 -22 -81 -41 -99 -43 -17
-2 -35 -10 -39 -18 -103 -193 -121 -329 -60 -448 51 -101 163 -204 311 -287
47 -26 115 -72 153 -102 l67 -55 0 -70 c0 -65 1 -70 20 -65 13 3 20 0 20 -9 0
-24 -64 -44 -137 -44 -81 0 -118 -19 -110 -55 3 -17 -4 -29 -26 -45 -24 -18
-28 -27 -23 -52 4 -18 0 -38 -10 -53 -12 -18 -13 -29 -5 -43 8 -15 7 -23 -5
-33 -11 -9 -14 -22 -9 -43 4 -17 6 -52 5 -79 -2 -94 73 -125 163 -67 26 16 76
36 112 45 36 8 84 24 107 35 23 11 43 20 44 20 0 0 18 -13 38 -29 130 -104
394 -190 676 -221 144 -16 140 -14 139 -58 0 -20 -8 -66 -17 -102 -16 -60 -19
-65 -50 -71 -18 -4 -42 -15 -54 -25 -67 -62 -88 -88 -88 -109 0 -13 -4 -27
-10 -30 -15 -9 -12 -39 8 -77 23 -44 29 -48 82 -48 56 0 115 27 155 70 17 18
53 42 81 55 118 53 164 127 164 266 0 89 8 99 77 99 40 0 165 17 366 51 137
22 311 76 412 126 182 91 367 278 462 468 46 91 150 372 163 443 21 104 8 171
-80 431 l-80 237 0 140 c1 195 34 347 130 594 84 217 134 377 157 504 24 127
23 417 0 545 -31 169 -61 211 -266 369 -69 53 -189 158 -266 233 -78 75 -153
139 -167 142 -31 8 -36 32 -27 117 4 36 17 73 37 105 29 48 106 285 132 410
16 73 17 200 2 237 -24 59 -376 432 -447 473 -48 29 -107 37 -158 23z m129
-28 c46 -18 146 -112 291 -276 168 -190 175 -200 171 -256 l-3 -43 -35 55
c-39 61 -104 136 -131 151 -10 5 4 -13 31 -41 51 -53 110 -142 130 -200 8 -24
9 -49 3 -80 l-9 -45 -31 56 c-74 131 -192 266 -285 325 -58 37 -59 28 -3 -10
122 -81 305 -319 305 -395 0 -33 -36 -171 -45 -171 -3 0 -30 34 -60 75 -31 41
-58 75 -62 75 -3 0 1 -8 8 -19 8 -10 36 -50 63 -89 l48 -71 -17 -50 c-9 -28
-20 -53 -24 -55 -4 -3 -22 21 -41 52 -18 31 -46 73 -61 92 -15 20 -30 54 -34
75 -14 76 -60 130 -102 119 -14 -4 -40 9 -84 41 -35 26 -83 56 -107 66 -52 23
-195 59 -231 59 -22 0 -169 -47 -235 -75 -17 -7 -18 -4 -11 46 8 64 31 88 107
113 62 20 194 21 265 2 71 -19 155 -59 225 -107 33 -22 62 -38 64 -36 3 2 -24
23 -58 45 -152 99 -306 143 -426 122 -37 -6 -87 -20 -111 -31 -24 -10 -46 -18
-47 -16 -2 2 8 26 21 54 26 52 34 57 130 77 11 2 1 4 -22 5 l-42 1 69 65 c76
71 118 84 142 45 16 -24 31 -25 68 -3 24 14 35 15 64 6 20 -6 34 -7 30 -2 -3
5 -11 9 -17 9 -34 1 -38 16 -13 61 13 24 26 56 30 71 8 37 -13 48 -33 17 -23
-35 -72 -89 -80 -89 -4 0 -12 21 -18 47 -14 58 1 94 50 123 36 22 118 27 163
10z m-273 -208 c-22 -5 -27 6 -12 24 12 15 14 14 20 -3 4 -12 1 -19 -8 -21z
m47 -386 c50 -11 59 -18 93 -66 34 -49 37 -59 37 -120 0 -85 -23 -172 -61
-229 -16 -25 -34 -63 -40 -86 -30 -109 -45 -149 -61 -159 -26 -16 -53 16 -53
62 0 31 -4 38 -23 40 -13 2 -25 -3 -28 -12 -9 -23 -32 -20 -72 10 -30 24 -40
26 -93 21 l-59 -5 0 29 c0 28 2 30 33 24 24 -5 37 -2 46 9 16 19 7 62 -15 70
-12 5 -15 2 -9 -11 17 -41 11 -48 -35 -50 -25 -1 -56 -3 -69 -5 -42 -6 -48 23
-19 88 29 64 62 176 79 266 l10 56 77 30 c147 58 167 61 262 38z m397 -185
c45 -67 19 -169 -68 -265 -40 -44 -47 -48 -66 -37 -12 6 -24 20 -28 31 -6 18
-9 19 -33 6 -42 -21 -63 -51 -69 -93 -6 -51 10 -91 39 -95 17 -2 24 -11 26
-30 3 -22 -2 -29 -22 -34 -32 -8 -46 1 -46 29 0 12 -7 31 -15 41 -20 26 -19
100 1 142 17 36 62 74 87 74 10 0 17 17 22 57 8 69 38 151 67 188 29 38 75 32
105 -14z m72 -330 c6 -29 11 -62 11 -74 0 -12 7 -44 16 -72 41 -130 42 -115
-7 -158 -169 -152 -365 -257 -476 -257 -72 0 -134 46 -119 87 6 14 10 13 30
-6 l23 -22 24 39 c13 22 49 67 80 100 l57 60 11 -24 c6 -15 16 -22 22 -18 32
19 119 251 119 316 0 16 8 29 24 36 13 6 43 33 67 62 l44 51 31 -34 c21 -22
36 -52 43 -86z m-714 -47 c43 -28 40 -44 -8 -42 -23 1 -52 -1 -64 -5 -19 -7
-23 -5 -23 12 0 20 34 51 58 51 7 0 23 -7 37 -16z m0 -65 c8 -12 -32 -59 -51
-59 -25 0 -45 30 -34 51 12 21 74 27 85 8z m73 -7 c20 -15 22 -22 13 -44 -14
-38 -45 -51 -97 -43 -46 7 -57 20 -25 30 11 3 31 21 46 40 30 40 32 41 63 17z
m1162 -500 c203 -156 226 -190 254 -367 25 -164 29 -254 17 -375 -22 -218 -39
-282 -143 -575 -116 -324 -153 -384 -286 -456 -42 -23 -149 -81 -238 -130 -88
-49 -223 -116 -300 -148 -136 -57 -294 -145 -423 -235 -36 -24 -69 -43 -73
-40 -4 3 -8 15 -8 27 -1 64 -81 162 -154 188 -20 7 -36 16 -36 19 0 3 37 27
83 54 45 27 138 86 207 131 69 44 164 105 211 135 48 29 160 113 250 186 90
73 202 159 249 191 77 53 90 58 137 57 28 0 49 4 47 8 -3 4 -25 8 -50 8 -32 0
-44 4 -44 15 0 8 7 15 15 15 8 0 15 5 15 10 0 6 -7 10 -15 10 -8 0 -15 7 -15
15 0 8 5 15 10 15 6 0 10 5 10 10 0 6 -7 10 -15 10 -8 0 -15 7 -15 15 0 8 7
15 15 15 24 0 17 18 -7 22 -33 4 -28 22 7 27 l30 4 -30 6 c-42 9 -44 36 -3 46
l33 9 -37 3 c-40 4 -55 33 -18 33 11 0 20 5 20 10 0 6 -9 10 -20 10 -11 0 -20
7 -20 15 0 8 9 15 20 15 11 0 20 5 20 10 0 6 -12 10 -26 10 -37 0 -28 33 11
40 25 5 27 7 12 13 -10 4 -27 7 -38 7 -21 0 -27 29 -6 31 6 1 17 2 22 4 6 1
19 3 30 5 11 2 2 6 -20 9 -27 4 -41 12 -43 24 -3 13 4 17 30 17 18 0 40 5 48
10 11 7 2 10 -32 10 -36 0 -48 4 -48 15 0 11 11 15 43 15 23 0 49 5 57 10 11
7 -2 10 -43 10 -50 0 -58 2 -55 18 2 13 15 18 56 20 66 4 59 22 -9 22 -36 0
-49 4 -47 13 3 7 29 13 69 15 35 2 68 7 73 12 4 4 -18 7 -52 6 -34 -2 -67 1
-74 5 -15 10 -13 10 72 15 89 4 90 7 6 13 -50 4 -81 11 -84 19 -3 9 21 12 97
12 56 0 103 4 106 10 4 6 -30 10 -94 10 -83 0 -101 3 -101 15 0 13 20 15 124
15 73 0 127 4 131 10 4 7 -60 10 -184 10 -121 0 -191 -4 -191 -10 0 -5 23 -10
50 -10 55 0 56 -1 41 -75 l-8 -40 -17 38 c-19 43 -31 49 -22 11 4 -14 2 -32
-4 -39 -8 -9 -6 -14 5 -19 22 -8 19 -26 -5 -26 -11 0 -20 -4 -20 -10 0 -5 7
-10 15 -10 8 0 15 -7 15 -15 0 -8 -7 -15 -16 -15 -13 0 -14 -3 -4 -15 14 -16
6 -35 -16 -35 -8 0 -14 -4 -14 -10 0 -5 7 -10 15 -10 25 0 14 -32 -15 -43 -12
-4 -11 -6 3 -6 25 -1 16 -25 -11 -29 -28 -4 -28 -18 -2 -25 30 -8 24 -27 -9
-27 -17 0 -33 -4 -36 -10 -4 -6 8 -10 30 -10 29 0 36 -3 33 -17 -2 -13 -14
-19 -41 -21 -43 -4 -40 -22 4 -22 19 0 29 -5 29 -15 0 -11 -12 -15 -45 -15
-25 0 -45 -4 -45 -10 0 -5 20 -10 45 -10 43 0 45 -1 45 -30 l0 -31 -65 2 c-36
1 -68 -1 -72 -5 -6 -6 36 -10 71 -6 36 4 66 -10 66 -30 0 -18 -7 -20 -62 -21
-100 -1 -118 -17 -20 -18 81 -1 82 -1 82 -26 0 -25 -1 -25 -90 -25 -53 0 -90
-4 -90 -10 0 -6 37 -10 90 -10 l90 0 0 -27 0 -28 -106 3 c-75 3 -104 1 -100
-7 5 -7 47 -11 112 -11 l104 0 0 -31 0 -31 -97 6 c-55 4 -111 3 -128 -3 -23
-7 2 -9 99 -10 l130 -1 -29 -30 c-28 -29 -32 -30 -119 -31 -50 0 -111 -4 -136
-8 -36 -7 -22 -9 70 -10 l115 -2 -39 -34 c-39 -35 -40 -35 -145 -37 l-106 -2
88 -3 c48 -2 87 -7 87 -10 0 -4 -7 -15 -17 -25 -13 -15 -34 -18 -117 -20
l-101 -2 84 -3 c82 -4 83 -4 66 -23 -15 -16 -33 -20 -99 -22 l-81 -2 67 -3
c54 -3 66 -7 61 -18 -4 -12 -25 -15 -88 -15 l-82 0 -55 118 c-220 466 -311
1008 -233 1396 19 92 43 158 56 150 5 -3 9 -17 9 -30 0 -33 33 -158 42 -162 5
-2 8 -12 8 -22 0 -24 50 -100 66 -100 7 0 14 -12 16 -27 2 -20 9 -29 26 -31
13 -2 22 -10 22 -21 0 -25 33 -53 54 -45 9 3 21 15 27 25 5 11 18 19 29 19 11
0 27 11 36 25 9 13 24 27 35 30 10 4 19 13 19 21 0 8 11 20 25 26 14 6 25 20
25 30 0 10 7 21 16 25 8 3 20 15 25 27 5 11 13 28 17 36 24 41 46 81 80 144
20 37 59 102 85 143 78 122 137 237 137 268 0 26 10 19 128 -96 70 -69 192
-175 272 -237z m-425 286 c-16 -51 -139 -249 -279 -446 -36 -51 -66 -97 -66
-102 0 -6 -4 -10 -9 -10 -4 0 -30 -20 -57 -45 -26 -25 -56 -45 -65 -45 -9 0
-19 -6 -22 -14 -7 -18 -57 -9 -80 15 -10 11 -22 19 -27 19 -5 0 -21 20 -36 45
-14 25 -30 45 -35 45 -5 0 -9 7 -9 15 0 8 -4 23 -10 33 -23 42 -70 176 -70
200 0 51 17 57 24 9 12 -82 103 -190 169 -202 18 -4 49 -2 68 4 31 9 30 9 -16
5 -70 -7 -110 16 -162 94 -34 50 -43 73 -43 105 1 38 2 40 13 22 102 -172 234
-170 442 9 49 42 93 76 97 76 13 0 -93 -141 -148 -196 -28 -29 -73 -64 -100
-78 -27 -15 -38 -24 -24 -20 73 20 133 81 312 320 67 90 126 164 131 164 5 0
5 -10 2 -22z m-106 -35 c-1 -13 -126 -115 -192 -157 -162 -104 -313 -124 -362
-49 -18 27 -13 42 7 25 7 -5 30 -15 51 -20 87 -24 235 31 397 146 84 60 101
69 99 55z m-179 -204 c-115 -107 -231 -152 -310 -119 -36 15 -87 71 -107 118
-20 49 -10 63 13 17 51 -106 217 -96 404 23 36 22 67 38 70 35 3 -3 -29 -36
-70 -74z m-589 -46 l15 -37 21 37 c19 31 43 49 43 32 0 -3 -24 -70 -54 -149
-54 -141 -99 -320 -97 -383 1 -23 -4 -33 -14 -33 -8 0 -15 -4 -15 -10 0 -5 5
-10 10 -10 6 0 10 -11 10 -25 0 -20 -5 -25 -27 -26 l-28 -2 28 -4 c25 -4 28
-8 25 -36 -2 -26 -8 -33 -33 -38 l-30 -7 33 -1 c27 -1 32 -5 32 -26 0 -22 -4
-25 -36 -25 -21 0 -33 -4 -29 -10 3 -5 17 -10 31 -10 17 0 24 -5 24 -20 0 -17
-7 -20 -42 -20 -32 0 -39 -3 -28 -10 8 -5 27 -10 43 -10 52 0 22 -39 -32 -41
l-36 -1 43 -11 c29 -7 42 -15 42 -27 0 -13 -12 -20 -42 -26 l-43 -8 38 -4 c32
-3 37 -7 37 -28 0 -21 -5 -24 -35 -24 -19 0 -35 -4 -35 -10 0 -5 14 -10 30
-10 25 0 30 -4 30 -25 0 -22 -4 -25 -35 -25 -19 0 -35 -4 -35 -10 0 -5 14 -10
30 -10 23 0 30 -4 30 -20 0 -12 -8 -21 -22 -24 -13 -3 -32 -7 -43 -9 -13 -3
-9 -5 11 -6 17 0 33 -4 37 -7 11 -11 -5 -34 -23 -34 -11 0 -22 -4 -25 -10 -3
-5 1 -10 9 -10 23 0 20 -26 -5 -44 -12 -8 -18 -19 -15 -25 4 -5 -7 -34 -24
-64 -37 -65 -74 -174 -95 -274 -19 -90 -45 -145 -94 -196 -52 -56 -85 -71
-123 -58 -17 6 -33 9 -35 7 -3 -2 13 -9 34 -16 86 -28 241 -111 306 -165 37
-31 67 -60 67 -64 0 -4 -17 -17 -38 -29 -30 -16 -46 -20 -68 -13 -16 4 -46 6
-66 3 -31 -3 -44 2 -80 31 -53 43 -224 129 -320 161 -82 28 -206 47 -227 36
-8 -4 14 -10 50 -14 89 -10 163 -30 263 -72 129 -54 245 -134 194 -134 -6 0
-22 -9 -34 -21 l-23 -21 -98 64 c-133 88 -147 94 -265 123 -109 26 -173 32
-183 15 -4 -6 14 -10 48 -10 115 0 284 -63 401 -148 l51 -37 -35 -3 c-19 -1
-47 -7 -61 -13 -22 -9 -33 -5 -80 27 -105 72 -277 134 -371 134 -67 0 -41 -17
35 -22 116 -8 344 -110 373 -167 6 -11 19 -30 29 -41 18 -20 18 -21 -5 -45
-13 -14 -28 -25 -33 -25 -5 0 -37 25 -70 56 -79 71 -176 118 -322 154 -96 25
-120 28 -143 18 -25 -11 -21 -12 48 -19 150 -13 308 -77 408 -165 57 -50 61
-60 35 -81 -44 -34 -47 -33 -123 28 -126 100 -296 171 -406 168 l-49 -1 60 -9
c123 -18 257 -74 372 -156 77 -54 91 -75 62 -95 -20 -13 -25 -10 -73 37 -65
63 -179 119 -305 151 -113 29 -217 42 -208 27 4 -6 37 -14 74 -18 156 -17 339
-88 422 -164 47 -43 51 -64 18 -86 -22 -14 -26 -12 -88 49 -99 96 -243 158
-402 173 -44 4 -72 1 -97 -10 l-35 -15 66 5 c81 7 209 -18 293 -56 73 -34 175
-108 204 -148 l21 -29 -35 -27 -34 -28 -32 37 c-61 70 -103 104 -169 139 -91
48 -166 65 -281 65 -86 0 -98 2 -108 20 -9 17 3 29 112 107 67 48 201 145 297
215 224 163 234 168 347 170 53 1 70 3 41 5 -35 3 -47 8 -44 17 5 14 142 191
244 317 29 37 68 74 86 83 18 9 25 16 15 16 -9 0 -19 9 -23 20 -6 20 36 250
80 440 14 58 34 146 44 195 57 267 146 525 205 593 32 36 176 161 187 162 4 0
13 -17 20 -37z m-53 -1040 c5 -10 13 -38 16 -63 35 -229 104 -457 196 -649 56
-115 59 -125 43 -137 -28 -20 -317 -192 -336 -200 -12 -4 -36 11 -79 51 -35
31 -75 64 -90 73 -23 13 -28 24 -34 80 -16 154 33 360 135 566 38 78 74 159
80 181 13 51 41 234 42 282 1 21 5 -8 10 -64 4 -56 12 -110 17 -120z m492
-697 c0 -3 -14 -15 -31 -27 -31 -22 -32 -22 -45 -4 -22 30 -17 35 31 35 25 0
45 -2 45 -4z m850 -6 c-20 -13 -73 -13 -65 0 3 6 23 10 43 10 28 0 33 -3 22
-10z m-15 -40 c4 -6 -21 -10 -67 -10 -51 0 -68 3 -58 10 20 13 117 13 125 0z
m-6 -72 c-4 -24 -8 -94 -9 -156 l0 -112 85 -252 c47 -139 85 -269 85 -290 l0
-37 -85 88 c-55 57 -107 100 -145 120 -66 35 -75 57 -37 88 34 29 69 83 63 99
-10 25 -37 29 -55 7 -9 -11 -24 -23 -33 -26 -9 -3 -18 -16 -20 -29 -2 -17 -18
-30 -58 -50 -46 -22 -69 -27 -137 -27 -46 -1 -83 -5 -83 -9 0 -4 16 -23 35
-42 19 -19 35 -41 35 -49 -1 -16 -110 92 -110 109 0 5 10 11 23 13 20 4 20 4
-3 6 -25 1 -50 17 -50 32 0 4 10 10 23 12 17 3 15 5 -8 6 -17 0 -37 7 -43 13
-10 10 -6 15 20 25 l33 11 -39 1 c-37 1 -86 31 -86 53 0 4 28 8 63 9 79 1 48
17 -35 18 -46 1 -59 5 -68 20 -19 36 -11 40 73 44 l82 3 -97 2 c-85 2 -99 4
-108 21 -20 38 -13 41 113 43 l122 2 -120 6 c-106 4 -116 6 -92 18 18 8 76 12
162 12 83 0 135 4 135 10 0 6 -43 10 -107 10 -99 1 -106 2 -83 15 18 10 62 14
158 15 86 0 131 4 127 10 -3 6 -50 10 -103 10 -87 1 -95 2 -78 15 15 11 52 16
140 17 l121 2 -97 3 c-54 2 -98 7 -98 12 0 22 75 41 173 43 l102 2 -90 6 -90
5 37 18 c25 11 67 18 125 19 83 2 84 2 20 5 -98 5 -73 23 32 23 l88 0 -8 -42z
m-1280 -307 c37 -29 69 -81 73 -120 3 -21 -5 -29 -49 -50 -31 -15 -72 -47 -98
-78 -57 -65 -218 -187 -269 -203 -35 -11 -41 -11 -53 6 -12 16 -8 24 39 73 29
30 43 48 32 40 -12 -8 -45 -31 -75 -51 -107 -75 -136 -33 -41 59 62 60 59 59
-37 -11 -65 -47 -97 -57 -107 -32 -9 23 12 51 66 91 28 21 49 40 46 43 -3 2
-21 -7 -39 -21 -44 -34 -77 -41 -101 -24 -16 11 -17 17 -7 38 11 23 11 23 -3
5 -9 -11 -16 -28 -16 -37 0 -14 -191 -159 -267 -203 -16 -9 -75 22 -71 36 3 7
17 21 32 32 23 18 28 19 36 6 8 -12 10 -11 10 5 0 12 5 26 12 33 7 7 8 12 4
12 -11 0 -126 -91 -126 -100 0 -4 11 -15 25 -24 27 -18 120 -22 130 -6 8 14
126 48 204 60 51 8 78 7 120 -4 29 -7 61 -11 71 -9 10 3 21 0 25 -7 11 -18 2
-21 -33 -11 -18 5 -32 6 -32 2 0 -5 19 -11 41 -15 50 -8 139 -45 139 -57 0
-12 5 -13 -91 23 -81 31 -89 32 -226 31 -152 -1 -226 -13 -143 -23 49 -6 49
-4 94 -161 15 -54 54 -104 87 -111 18 -4 381 300 373 313 -3 5 -12 9 -20 9 -8
0 -14 4 -14 9 0 15 48 41 65 35 14 -6 14 -9 -1 -32 -9 -14 15 2 57 38 93 79
100 85 70 70 -37 -19 -45 2 -12 34 19 18 36 26 46 22 9 -3 13 -10 10 -16 -10
-16 5 -12 36 11 49 34 33 7 -27 -46 -48 -43 -53 -51 -35 -52 38 -3 89 -42 136
-105 25 -33 45 -53 45 -45 0 24 -62 99 -113 137 l-48 35 26 23 c14 12 30 22
35 22 16 0 72 -53 112 -107 22 -30 42 -52 45 -49 9 8 -25 55 -86 119 -42 44
-52 60 -43 69 16 16 15 25 -4 32 -10 4 -25 -1 -34 -9 -12 -11 -26 -14 -44 -9
-33 8 -33 17 0 43 l26 20 56 -24 c40 -18 76 -45 121 -92 36 -38 53 -52 40 -33
-13 19 -45 55 -71 80 -49 46 -50 58 -10 79 19 10 28 9 57 -9 33 -20 72 -60
108 -110 l17 -25 -14 31 c-17 35 -58 80 -101 111 -25 18 -27 23 -16 37 25 30
68 19 123 -31 43 -40 48 -42 30 -16 -12 17 -38 41 -57 53 -38 24 -42 32 -21
49 20 17 61 4 114 -37 27 -20 39 -26 27 -12 -11 12 -39 33 -62 47 -46 27 -48
43 -5 43 32 0 154 -69 200 -113 l32 -31 -32 -33 c-31 -32 -31 -33 -12 -54 10
-12 72 -69 137 -126 116 -103 117 -104 150 -93 19 6 46 29 65 55 18 25 38 45
43 45 9 0 58 -32 118 -77 2 -2 -4 -12 -14 -23 -18 -20 -18 -21 1 -35 27 -21
81 -35 134 -35 33 0 41 -3 30 -10 -31 -20 -100 -11 -168 23 -60 29 -75 32
-152 31 -63 -1 -106 -8 -168 -28 -46 -15 -86 -25 -90 -22 -10 10 7 19 74 41
l66 21 -133 117 -134 117 -242 -242 c-267 -267 -252 -258 -294 -170 -13 26
-54 79 -92 119 -62 64 -76 93 -46 93 15 0 114 -65 139 -92 12 -12 30 -39 40
-58 11 -19 19 -28 20 -19 0 30 -61 100 -120 137 -33 20 -59 41 -60 46 0 5 8
19 18 30 19 23 -10 -1 -194 -159 -183 -156 -347 -285 -353 -279 -4 3 14 24 39
45 l45 39 -37 30 c-20 17 -41 45 -47 63 -5 17 -19 65 -31 105 l-21 72 -106 0
c-98 0 -109 2 -139 25 -18 14 -36 25 -41 25 -12 0 -207 -149 -212 -162 -4 -12
83 48 101 69 6 8 33 13 66 13 54 0 55 0 37 -20 -14 -15 -31 -20 -69 -20 -50 0
-55 -15 -6 -22 21 -3 12 -14 -82 -96 -89 -77 -107 -98 -110 -125 l-3 -32 -106
105 c-67 67 -114 123 -129 154 -37 78 -40 195 -6 241 12 16 16 17 29 6 13 -10
20 -10 38 0 20 10 25 9 37 -10 18 -27 40 -27 69 0 20 20 23 20 29 5 12 -30 40
-38 77 -20 32 16 36 15 83 -7 l49 -24 -120 -5 -120 -6 136 -2 c110 -2 139 -5
150 -18 21 -26 -6 -34 -121 -35 -80 -1 -97 -3 -70 -10 19 -4 52 -5 72 -2 21 3
45 2 55 -1 17 -7 17 -8 -1 -22 -11 -8 -32 -14 -47 -14 -15 0 -31 -4 -34 -10
-3 -5 1 -10 9 -10 24 0 19 -11 -16 -41 -18 -15 -30 -30 -27 -34 4 -3 18 4 31
17 45 43 608 473 626 477 18 4 -46 -50 -171 -144 -66 -49 -75 -60 -65 -73 11
-13 13 -13 16 6 4 27 58 68 65 50 4 -8 6 -7 6 4 1 17 55 68 72 68 6 0 20 11
32 25 21 24 24 24 50 10 28 -14 31 -13 90 28 l62 42 -75 3 c-66 3 -77 6 -93
28 l-18 24 46 0 c31 0 47 5 51 15 5 11 21 15 60 15 30 0 76 9 105 20 43 17 65
20 138 14 74 -5 92 -3 131 15 51 23 71 20 119 -18z m-452 -8 c-9 -9 -20 -14
-24 -10 -3 4 2 14 13 21 25 19 33 10 11 -11z m-1157 2 c41 0 90 4 108 8 47 12
39 -2 -28 -50 -47 -35 -66 -43 -101 -43 -59 0 -129 35 -129 64 0 32 10 39 45
30 16 -5 64 -8 105 -9z m1035 -35 c-3 -5 -19 -10 -35 -10 -16 0 -32 5 -35 10
-4 6 10 10 35 10 25 0 39 -4 35 -10z m1800 -100 c10 -16 -16 -43 -28 -31 -11
11 -2 41 12 41 5 0 13 -5 16 -10z m-2832 -22 c6 -18 -12 -50 -24 -43 -15 10
-11 55 5 55 8 0 16 -6 19 -12z m62 -18 c4 -6 1 -18 -6 -26 -11 -14 -13 -14
-21 0 -15 26 12 51 27 26z m225 -17 c67 -18 120 -45 182 -90 60 -43 114 -111
101 -124 -7 -7 -30 9 -68 46 -95 91 -233 157 -327 156 -29 0 -43 12 -33 30 8
12 62 5 145 -18z m2508 8 c3 -8 -1 -12 -9 -9 -7 2 -15 10 -17 17 -3 8 1 12 9
9 7 -2 15 -10 17 -17z m-2683 -16 c0 -10 -6 -20 -12 -22 -8 -3 -13 5 -13 22 0
17 5 25 13 23 6 -3 12 -13 12 -23z m-75 -65 c0 -37 -14 -60 -37 -60 -14 0 -37
40 -47 82 -6 25 -4 27 31 30 44 4 53 -5 53 -52z m160 30 c0 -11 -4 -20 -10
-20 -5 0 -10 9 -10 20 0 11 5 20 10 20 6 0 10 -9 10 -20z m84 -11 c-7 -11 -41
-12 -48 0 -9 13 2 19 29 13 14 -2 22 -8 19 -13z m2467 9 c5 -61 -24 -136 -57
-144 -60 -15 -95 20 -80 80 10 39 134 96 137 64z m-2601 -35 c0 -37 -23 -73
-46 -73 -13 0 -34 50 -34 81 0 13 9 19 33 22 17 2 35 5 40 5 4 1 7 -15 7 -35z
m85 -34 c0 -39 -3 -45 -28 -53 -35 -13 -48 4 -45 54 2 27 8 36 28 41 39 11 45
5 45 -42z m150 22 c83 -47 87 -65 7 -29 -39 18 -71 39 -72 46 0 18 9 15 65
-17z m-95 -7 c0 -8 -7 -14 -15 -14 -15 0 -21 21 -9 33 10 9 24 -2 24 -19z
m722 -16 c-7 -7 -12 -22 -12 -35 0 -19 -5 -23 -32 -24 -18 0 -42 -4 -53 -9
-14 -6 1 -9 50 -10 l70 -2 -70 -13 c-38 -7 -96 -20 -128 -30 -32 -9 -61 -15
-63 -12 -3 2 39 36 93 75 67 49 107 71 128 71 22 1 26 -2 17 -11z m-682 -19
c14 -24 -2 -49 -31 -49 -15 0 -48 38 -37 43 2 1 12 7 23 14 28 17 33 16 45 -8z
m95 -21 c26 -18 44 -33 39 -35 -18 -6 -109 35 -112 51 -5 25 20 19 73 -16z
m2204 -44 c49 -35 59 -64 22 -64 -24 0 -106 74 -97 88 11 18 22 15 75 -24z
m-1270 -53 c13 -8 8 -31 -7 -31 -17 1 -34 19 -28 29 9 13 16 14 35 2z m-45
-42 c5 -5 7 -11 4 -14 -7 -8 -58 16 -58 27 0 10 40 1 54 -13z m-744 -29 c11
-7 7 -10 -17 -10 -18 0 -33 5 -33 10 0 13 30 13 50 0z m284 -62 c31 -108 31
-106 0 -131 -16 -12 -78 -65 -139 -118 -60 -53 -119 -100 -130 -106 -25 -14
-246 -75 -251 -70 -2 2 -6 51 -9 108 l-6 104 157 133 157 132 103 0 103 0 15
-52z m588 3 c66 -61 148 -191 120 -191 -6 0 -25 27 -43 61 -20 37 -58 83 -97
120 -36 33 -58 59 -49 59 8 0 39 -22 69 -49z m-33 -17 c42 -37 121 -147 121
-170 0 -27 -17 -13 -36 29 -10 23 -51 74 -91 114 -74 71 -69 91 6 27z m-539
-144 c0 -5 -4 -10 -10 -10 -5 0 -10 5 -10 10 0 6 5 10 10 10 6 0 10 -4 10 -10z
m60 -35 c13 -16 10 -18 -35 -28 -11 -3 -5 -5 14 -6 l35 -1 -33 -34 c-32 -33
-32 -35 -13 -45 15 -8 23 -6 37 9 15 17 31 20 97 20 63 0 78 -3 78 -15 0 -11
-12 -15 -47 -15 -35 0 -44 -3 -33 -10 8 -5 37 -10 63 -10 51 0 58 -19 9 -21
-20 -1 -16 -3 12 -8 42 -6 59 -26 29 -34 -10 -3 -3 -5 15 -6 34 -1 40 -9 20
-29 -9 -9 -6 -12 15 -12 17 0 27 -5 27 -15 0 -8 7 -15 15 -15 8 0 15 -4 15 -9
0 -12 145 -95 190 -109 19 -6 69 -12 111 -15 86 -6 124 -22 163 -67 32 -38 37
-59 39 -147 l2 -68 -45 -6 -45 -6 43 -1 c23 -1 42 -6 42 -12 0 -9 -25 -15 -95
-23 -16 -2 -3 -5 30 -6 56 -2 59 -3 40 -17 -11 -8 -29 -13 -40 -10 -11 2 -40
1 -65 -4 -44 -7 -43 -8 23 -9 59 -1 68 -3 65 -18 -3 -14 -15 -19 -63 -21 -70
-4 -101 -22 -37 -22 23 0 42 -4 42 -8 0 -21 -29 -32 -83 -32 -62 0 -72 -16
-11 -18 20 -1 40 -4 43 -8 12 -12 -34 -34 -73 -35 l-41 -2 40 -6 c57 -9 54
-34 -5 -42 l-45 -5 39 -5 c52 -5 61 -29 12 -29 -20 0 -36 -4 -36 -10 0 -5 16
-10 35 -10 24 0 35 -5 35 -15 0 -11 -11 -15 -36 -15 -21 0 -33 -4 -29 -10 3
-5 20 -10 36 -10 36 0 35 -21 -2 -30 l-24 -6 23 -8 c25 -9 30 -26 6 -26 -13 0
-14 -3 -4 -15 17 -20 -67 -100 -123 -117 -27 -8 -55 -27 -80 -54 -53 -59 -163
-94 -195 -62 -19 19 -14 27 21 30 27 3 34 9 44 39 6 20 25 58 42 85 41 69 67
154 80 264 19 158 -9 250 -108 350 -71 71 -100 91 -232 161 -59 31 -151 86
-205 120 -54 35 -135 84 -182 109 -46 25 -85 49 -86 55 0 5 19 15 44 22 32 9
76 40 155 108 108 92 111 94 161 95 34 0 56 -5 64 -15z m150 -50 c11 -13 6
-15 -34 -15 -43 0 -55 7 -39 23 12 13 60 7 73 -8z m-752 -297 c-19 -85 13
-192 83 -280 l29 -37 -29 -15 c-16 -9 -61 -24 -101 -35 -40 -11 -92 -32 -117
-47 -59 -34 -109 -36 -134 -5 -11 13 -19 31 -19 41 0 28 44 57 106 71 30 7 54
16 54 22 0 9 -30 6 -62 -8 -12 -5 -21 1 -32 24 -18 34 -16 36 39 47 l40 8 -40
6 c-37 5 -40 8 -43 38 -3 31 -2 32 32 32 19 0 38 5 41 10 4 7 -2 9 -19 4 -15
-3 -32 -1 -40 5 -7 6 -21 9 -30 5 -12 -4 -16 0 -16 15 0 24 10 27 28 9 9 -9
12 -7 12 10 0 17 8 22 38 27 65 11 68 13 23 14 -35 1 -42 4 -33 13 7 7 12 20
12 30 0 15 9 18 58 19 31 1 68 5 82 9 47 15 49 13 38 -32z m-188 3 c0 -6 -4
-13 -10 -16 -5 -3 -10 1 -10 9 0 9 5 16 10 16 6 0 10 -4 10 -9z m-52 -183 c-4
-29 -38 -38 -38 -10 0 19 11 29 33 31 5 1 7 -9 5 -21z m7 -98 c0 -8 -11 -17
-24 -18 -27 -4 -47 18 -28 30 19 13 52 5 52 -12z m1165 -550 c-20 -13 -40 -13
-40 0 0 6 12 10 28 10 21 0 24 -2 12 -10z m-75 -50 c-3 -5 -13 -10 -21 -10 -8
0 -12 5 -9 10 3 6 13 10 21 10 8 0 12 -4 9 -10z m25 -25 c-8 -8 -32 -21 -52
-30 -33 -13 -38 -13 -38 0 0 9 19 20 48 29 60 19 59 19 42 1z m0 -33 c0 -10
-33 -41 -78 -72 l-34 -22 4 28 c2 23 12 34 48 51 50 24 60 27 60 15z m-20 -70
c0 -14 -23 -32 -42 -32 -23 0 -23 16 0 29 21 13 42 14 42 3z"/>
<path d="M6038 7473 c7 -3 16 -2 19 1 4 3 -2 6 -13 5 -11 0 -14 -3 -6 -6z"/>
<path d="M6088 7463 c6 -2 18 -2 25 0 6 3 1 5 -13 5 -14 0 -19 -2 -12 -5z"/>
<path d="M5932 7181 c-56 -19 -92 -46 -92 -68 0 -19 16 -16 63 11 23 14 66 28
95 32 55 7 64 17 33 34 -26 13 -37 13 -99 -9z"/>
<path d="M5903 7059 c-27 -17 -33 -28 -33 -55 0 -23 6 -37 19 -44 28 -14 87
-12 119 4 28 15 89 74 81 78 -72 45 -135 50 -186 17z m141 -5 c9 -3 16 -12 16
-19 0 -20 -57 -64 -93 -70 -39 -8 -87 9 -87 30 0 13 7 15 34 9 31 -5 36 -3 50
25 17 31 43 39 80 25z"/>
<path d="M6464 7045 c-18 -15 -17 -16 13 -10 27 5 34 2 48 -19 11 -16 15 -35
11 -51 -4 -14 -2 -25 4 -25 16 0 12 73 -6 98 -18 26 -42 28 -70 7z"/>
<path d="M6450 6995 c-11 -13 -8 -14 19 -9 26 5 31 3 31 -12 0 -14 3 -15 12
-6 8 8 8 15 -2 27 -16 19 -44 19 -60 0z"/>
<path d="M6432 6917 c-17 -47 -16 -71 4 -63 9 3 17 6 20 6 7 0 34 59 34 75 0
9 -9 15 -23 15 -17 0 -26 -9 -35 -33z"/>
<path d="M6495 6864 c-20 -30 -11 -46 10 -18 13 18 20 44 11 44 -2 0 -11 -12
-21 -26z"/>
<path d="M6410 6809 c0 -11 5 -17 10 -14 6 3 10 13 10 21 0 8 -4 14 -10 14 -5
0 -10 -9 -10 -21z"/>
<path d="M6750 5640 c0 -6 38 -10 95 -10 57 0 95 4 95 10 0 6 -38 10 -95 10
-57 0 -95 -4 -95 -10z"/>
<path d="M5368 4733 c7 -3 16 -2 19 1 4 3 -2 6 -13 5 -11 0 -14 -3 -6 -6z"/>
<path d="M5169 4269 c47 -10 86 -17 88 -15 6 5 -124 36 -149 35 -13 0 15 -9
61 -20z"/>
<path d="M4960 4240 l-25 -7 25 -6 c14 -3 61 -10 105 -15 151 -20 387 -117
458 -188 41 -41 59 -42 27 -2 -28 36 -105 84 -202 124 -136 58 -339 107 -388
94z"/>
<path d="M5733 3551 c-13 -11 -23 -21 -23 -24 0 -3 20 -17 45 -32 25 -14 71
-51 101 -82 30 -31 57 -53 60 -50 10 9 -85 104 -137 138 -48 30 -49 32 -33 50
22 24 15 24 -13 0z"/>
<path d="M5198 3493 c23 -2 61 -2 85 0 23 2 4 4 -43 4 -47 0 -66 -2 -42 -4z"/>
<path d="M6771 3476 c-14 -14 -21 -29 -17 -33 9 -9 49 32 44 47 -2 6 -13 1
-27 -14z"/>
<path d="M4819 3190 c-188 -158 -257 -223 -206 -194 22 13 400 329 416 348 43
52 -20 6 -210 -154z"/>
<path d="M4305 2467 c-22 -17 -14 -67 12 -67 13 0 14 3 5 12 -20 20 -14 47 12
54 47 11 63 -23 24 -50 -16 -12 -18 -16 -7 -16 9 0 24 9 33 19 38 42 -30 83
-79 48z"/>
<path d="M7210 7679 c-74 -4 -207 -8 -295 -9 -88 -1 -187 -6 -220 -10 -33 -4
116 -5 330 -1 215 3 462 6 550 6 196 0 723 -23 790 -34 29 -5 -264 -10 -705
-11 -415 -1 -804 -6 -865 -10 -60 -3 283 -7 763 -8 l872 -2 0 24 c0 22 -4 24
-82 29 -437 31 -831 40 -1138 26z"/>
<path d="M6755 7570 c-37 -9 699 -10 1265 -1 355 6 295 7 -410 8 -454 0 -838
-3 -855 -7z"/>
<path d="M6755 7540 c4 -7 295 -10 841 -10 549 0 834 3 834 10 0 7 -287 10
-841 10 -557 0 -838 -3 -834 -10z"/>
<path d="M6800 7500 c21 -14 1630 -14 1630 0 0 7 -281 10 -822 10 -535 0 -818
-4 -808 -10z"/>
<path d="M7175 7469 c606 -11 1255 -10 1255 1 0 7 -276 9 -812 8 -687 -2 -755
-3 -443 -9z"/>
<path d="M6845 7440 c-4 -7 262 -10 789 -10 524 0 796 3 796 10 0 7 -270 10
-789 10 -516 0 -792 -3 -796 -10z"/>
<path d="M6865 7400 c4 -7 277 -10 786 -10 513 0 779 3 779 10 0 7 -269 10
-786 10 -521 0 -783 -3 -779 -10z"/>
<path d="M6890 7360 c0 -7 263 -10 770 -10 507 0 770 3 770 10 0 7 -263 10
-770 10 -507 0 -770 -3 -770 -10z"/>
<path d="M7638 7333 c-481 -2 -738 -7 -738 -13 0 -7 203 -11 578 -12 317 -1
543 -4 502 -8 -41 -4 -299 -8 -572 -9 -325 -1 -498 -4 -498 -11 0 -6 113 -11
318 -11 193 -1 294 -5 257 -9 -33 -4 -177 -9 -320 -11 -143 -2 -211 -5 -150
-6 68 -2 112 -8 116 -15 8 -12 49 -10 539 33 135 11 270 22 300 24 189 12 460
40 460 47 0 4 -12 7 -27 6 -16 -2 -360 -4 -765 -5z m-51 -69 c-3 -3 -12 -4
-19 -1 -8 3 -5 6 6 6 11 1 17 -2 13 -5z"/>
<path d="M8298 7293 c-34 -3 -46 -8 -42 -17 8 -21 -37 -28 -58 -9 -13 12 -29
14 -73 8 -30 -3 -55 -11 -55 -16 0 -6 -7 -6 -19 0 -13 8 -23 6 -37 -5 -12 -10
-15 -17 -7 -20 6 -3 22 -14 35 -25 22 -20 22 -21 4 -35 -23 -16 -51 0 -42 23
4 10 -1 13 -17 11 -13 -2 -22 -10 -22 -21 0 -21 -23 -37 -42 -30 -7 3 -13 11
-13 19 0 9 -12 14 -32 14 -32 1 -32 1 -13 16 11 8 31 13 44 11 30 -6 71 11 71
30 0 15 -22 16 -122 6 -51 -4 -68 -10 -68 -21 0 -24 -46 -59 -84 -64 -39 -4
-45 2 -21 22 11 9 12 17 4 31 -11 21 -51 18 -80 -7 -18 -16 -45 -18 -54 -4
-11 18 -64 11 -77 -10 -13 -21 -38 -27 -38 -10 0 6 -14 10 -31 10 -18 0 -28
-4 -24 -10 4 -6 15 -8 26 -5 11 4 19 2 19 -5 0 -15 -27 -24 -47 -15 -10 5 -26
7 -36 6 -9 -1 -20 5 -23 13 -5 14 -22 15 -118 10 -61 -3 -115 -9 -121 -12 -5
-4 -25 -7 -44 -7 -20 0 -36 -6 -39 -14 -3 -10 3 -12 27 -6 39 8 43 -12 4 -21
-21 -6 -30 -2 -41 14 -16 25 -88 33 -79 10 2 -7 10 -12 16 -11 19 5 12 -14
-11 -30 -34 -22 -15 -32 21 -11 24 14 35 15 54 7 19 -9 34 -8 69 5 42 15 46
14 69 -2 l24 -18 -35 5 c-19 3 -50 -1 -68 -9 -25 -10 -38 -11 -57 -2 -39 18
-103 -17 -111 -60 -5 -25 -2 -36 12 -47 18 -14 18 -14 -3 -15 -24 0 -27 -4
-37 -42 -5 -23 -3 -28 12 -28 10 0 26 -6 36 -13 16 -12 13 -13 -19 -9 -25 3
-40 0 -46 -9 -12 -19 -11 -39 1 -39 6 0 10 7 10 15 0 12 4 13 19 5 33 -17 85
-12 99 10 14 24 32 26 32 5 0 -8 4 -15 10 -15 5 0 6 8 3 17 -5 13 -3 15 13 8
41 -17 175 4 207 33 16 14 19 14 27 2 7 -10 10 -11 10 -3 0 8 10 11 28 7 19
-4 42 1 66 14 30 16 42 18 66 9 41 -16 345 38 377 66 20 17 27 19 49 8 33 -14
89 -5 127 22 24 16 32 18 52 7 31 -17 105 -4 126 22 13 17 19 18 42 7 24 -11
29 -10 40 6 10 13 20 15 38 10 23 -8 23 -8 4 -16 -18 -7 -18 -8 -2 -8 11 -1
28 9 39 22 13 15 21 18 24 10 6 -14 42 -17 68 -7 22 8 23 94 1 94 -24 0 -29
-4 -30 -22 -1 -9 8 -20 19 -24 20 -6 20 -7 -2 -11 -13 -3 -30 1 -38 8 -12 10
-13 9 -8 -5 5 -12 0 -16 -20 -16 -25 0 -36 14 -17 22 4 2 12 14 16 26 6 22 5
23 -15 12 -19 -10 -21 -9 -18 7 2 14 17 20 66 26 l62 9 0 39 c0 32 -4 39 -19
39 -11 0 -23 -4 -26 -10 -9 -15 -25 -12 -25 5 0 8 -3 14 -7 13 -5 -1 -29 -3
-55 -5z m-140 -32 c9 -5 25 -12 35 -15 31 -10 18 -23 -20 -21 -30 2 -39 7 -41
24 -4 23 0 25 26 12z m232 -18 c8 -7 -25 -23 -38 -18 -8 3 -26 5 -40 5 -26 1
-26 1 -8 15 16 12 71 11 86 -2z m-449 -8 c-1 -15 -24 -12 -29 3 -3 9 2 13 12
10 10 -1 17 -7 17 -13z m109 5 c0 -5 -6 -10 -14 -10 -8 0 -18 5 -21 10 -3 6 3
10 14 10 12 0 21 -4 21 -10z m93 -27 c4 -3 2 -12 -3 -18 -8 -9 -4 -11 13 -8
14 3 29 -2 36 -11 12 -14 9 -16 -21 -16 -19 0 -38 -3 -42 -7 -4 -5 -20 -8 -34
-8 -15 0 -27 -5 -27 -12 0 -19 -21 -35 -41 -31 -21 4 -16 23 6 23 8 0 14 7 12
17 -1 9 6 19 17 23 10 3 26 17 35 30 16 24 36 32 49 18z m-605 -15 c-5 -16
-48 -24 -48 -9 0 8 17 16 43 20 5 0 7 -5 5 -11z m124 0 c-9 -9 -15 -9 -24 0
-9 9 -7 12 12 12 19 0 21 -3 12 -12z m-491 -38 c-19 -17 -26 -18 -39 -8 -13
11 -11 14 9 19 46 13 55 9 30 -11z m698 -6 c-15 -18 -51 -15 -57 5 -3 9 1 11
16 7 11 -4 23 -2 27 4 3 6 11 8 16 4 6 -4 5 -11 -2 -20z m-361 0 c40 -11 24
-26 -21 -19 -35 5 -47 3 -67 -15 -25 -21 -25 -21 -2 -10 21 10 23 9 20 -7 -2
-12 -14 -19 -36 -21 -31 -3 -37 3 -33 36 2 11 -8 12 -41 8 -41 -7 -42 -6 -23
9 14 12 33 15 62 12 22 -2 47 -1 55 4 15 10 54 11 86 3z m260 -11 c-14 -17
-35 -16 -41 1 -4 9 3 13 23 12 21 -1 26 -4 18 -13z m466 -7 c-8 -20 -45 -18
-52 3 -3 8 0 11 7 7 6 -4 19 -3 28 3 22 12 25 9 17 -13z m-573 5 c19 12 29 11
29 -1 0 -6 -11 -15 -25 -22 -19 -8 -28 -8 -40 2 -21 18 -19 33 3 21 11 -6 24
-6 33 0z m263 3 c9 -3 16 -13 16 -20 0 -12 -4 -12 -20 -4 -14 8 -26 8 -41 0
-28 -15 -39 -2 -15 16 22 15 36 17 60 8z m226 -14 c0 -13 -46 -24 -62 -14 -9
6 -6 10 12 15 37 10 50 10 50 -1z m-180 -17 c-1 -22 -19 -35 -41 -28 -22 7
-22 8 7 20 16 8 30 14 32 14 1 1 2 -2 2 -6z m-235 -12 c-11 -4 -33 -11 -49
-15 -26 -6 -28 -5 -17 8 8 10 28 16 50 15 28 0 32 -2 16 -8z m-429 -12 c35 16
40 14 19 -9 -15 -17 -65 -29 -65 -16 0 2 -3 13 -7 23 -6 16 -5 16 10 4 14 -11
23 -12 43 -2z m332 -1 c8 -10 3 -13 -21 -13 -18 0 -43 -4 -57 -8 l-25 -8 24
20 c26 24 63 27 79 9z m242 -3 c0 -8 -9 -15 -20 -15 -25 0 -26 17 -2 23 9 3
18 5 20 6 1 0 2 -6 2 -14z m254 6 c3 -5 -12 -11 -33 -13 -31 -3 -37 -1 -29 9
12 15 54 17 62 4z m-936 -18 c-4 -25 -60 -29 -79 -7 -12 15 -11 16 18 10 18
-4 34 -3 38 3 10 17 27 13 23 -6z m-120 -10 c-2 -10 -16 -22 -31 -27 -21 -8
-31 -6 -44 7 -20 20 -10 35 12 17 13 -11 19 -11 33 3 21 22 34 22 30 0z m322
-3 c8 -5 15 -15 15 -22 0 -8 9 -12 23 -10 23 3 30 -12 11 -23 -17 -11 -61 4
-56 20 8 19 -18 26 -49 15 -14 -6 -33 -10 -42 -10 -33 0 32 35 73 39 6 0 17
-4 25 -9z m548 -3 c9 -10 3 -13 -28 -12 -29 0 -36 3 -28 13 14 16 43 16 56 -1z
m-377 -18 c-26 -21 -72 -22 -78 -2 -3 7 3 9 16 6 10 -3 28 0 38 6 33 19 50 12
24 -10z m264 -7 c-16 -2 -36 -8 -42 -14 -10 -8 -13 -6 -13 6 0 23 40 37 65 22
19 -10 18 -11 -10 -14z m-75 -7 c9 -10 2 -13 -30 -12 -23 1 -40 7 -40 14 0 24
49 23 70 -2z m-106 -1 c9 -3 14 -10 11 -15 -3 -4 -12 -6 -20 -3 -8 4 -28 1
-45 -4 -32 -12 -41 0 -12 17 20 12 44 14 66 5z m-626 -21 c2 -9 -9 -13 -37
-13 -22 0 -43 -4 -46 -10 -12 -19 -26 -11 -15 9 15 29 89 39 98 14z m303 -14
c-14 -11 -29 -15 -41 -11 -27 10 -24 28 5 24 12 -2 26 2 30 8 3 5 11 7 17 4 7
-5 3 -14 -11 -25z m224 0 c5 -5 -6 -9 -31 -9 -22 0 -45 -5 -51 -11 -7 -7 -13
-7 -17 -1 -4 6 4 18 16 27 23 16 63 13 83 -6z m-357 -15 c-11 -11 -23 -14 -35
-9 -16 7 -15 9 7 15 40 12 45 11 28 -6z m-127 -25 c-28 -23 -44 -24 -61 -4
-11 13 -8 15 16 15 16 0 36 4 44 10 25 16 26 -1 1 -21z m238 5 c8 -7 -4 -11
-54 -17 l-50 -7 24 20 c20 18 62 19 80 4z m-123 -19 c18 -13 15 -14 -28 -13
-26 1 -54 -5 -63 -12 -23 -19 -31 -3 -10 20 22 24 73 26 101 5z m-149 -23 c7
-5 -10 -12 -44 -18 -55 -10 -55 -10 -33 8 23 19 56 23 77 10z"/>
<path d="M7720 7230 c20 -13 50 -13 50 0 0 6 -15 10 -32 10 -25 0 -29 -3 -18
-10z"/>
<path d="M7005 7220 c-38 -4 -73 -6 -77 -3 -5 2 -8 -1 -8 -8 0 -14 179 -3 195
12 10 10 -4 10 -110 -1z"/>
<path d="M7340 7210 c0 -5 5 -10 11 -10 5 0 7 5 4 10 -3 6 -8 10 -11 10 -2 0
-4 -4 -4 -10z"/>
<path d="M7720 7211 c0 -5 5 -13 10 -16 6 -3 10 -2 10 4 0 5 -4 13 -10 16 -5
3 -10 2 -10 -4z"/>
<path d="M5345 7044 c-463 -35 -989 -103 -1045 -135 -29 -16 51 -10 86 7 46
22 55 11 13 -16 -28 -18 -44 -20 -95 -16 -55 4 -64 2 -83 -18 -11 -12 -21 -27
-21 -33 0 -20 48 -50 123 -78 l73 -26 40 23 c51 30 166 32 210 3 31 -20 18
-33 -15 -16 -11 6 -51 11 -90 11 -111 0 -133 -17 -54 -44 61 -21 80 -21 63 -1
-17 20 7 20 34 0 29 -22 114 -19 154 5 40 25 45 25 33 1 -9 -16 -21 -23 -86
-46 -17 -7 -16 -9 12 -17 25 -6 41 -4 70 10 57 29 87 33 142 21 73 -15 63 -29
-17 -22 -50 4 -76 2 -97 -9 l-28 -15 63 -22 c79 -26 89 -26 59 -1 l-24 19 51
-16 c62 -19 112 -12 154 23 l30 26 -8 -24 c-11 -29 -66 -58 -112 -59 -33 -1
-31 -2 25 -21 42 -15 60 -18 63 -9 4 13 65 45 103 54 27 7 115 -5 126 -17 14
-14 -7 -16 -56 -5 -48 10 -56 9 -106 -16 -59 -28 -67 -40 -35 -50 11 -3 20 -9
20 -13 0 -4 5 -14 10 -22 7 -12 13 -11 34 10 19 17 26 20 26 8 0 -19 -32 -48
-52 -48 -9 0 -38 -11 -65 -25 -26 -14 -93 -38 -148 -54 -55 -15 -207 -63 -339
-105 -492 -159 -1252 -382 -2110 -621 -269 -75 -493 -138 -498 -141 -4 -3 -8
-12 -8 -21 0 -14 3 -14 25 1 48 31 135 48 188 35 72 -17 63 -24 -26 -21 -76 3
-86 1 -134 -28 l-53 -30 0 -110 c0 -61 3 -110 6 -110 12 0 51 24 77 48 15 14
27 21 27 15 0 -15 -63 -70 -89 -78 -20 -6 -21 -13 -21 -186 l0 -179 37 0 c29
0 43 8 75 40 46 49 52 34 5 -16 -24 -26 -43 -37 -75 -41 l-42 -6 0 -200 0
-200 50 5 c54 5 94 34 131 93 17 27 19 28 19 8 0 -50 -101 -123 -171 -123
l-29 0 0 -90 c0 -87 1 -90 23 -90 43 0 91 20 124 52 18 17 33 27 33 22 0 -12
-48 -58 -75 -72 -11 -5 -39 -13 -62 -17 -43 -7 -43 -7 -43 -50 0 -23 6 -48 13
-54 10 -8 68 9 238 71 l224 81 53 58 c66 72 97 83 215 76 104 -5 127 -1 127
23 0 21 70 86 108 101 17 7 64 9 125 5 82 -6 97 -5 97 8 0 26 50 74 95 92 36
13 62 15 124 10 l79 -6 11 33 c13 39 54 81 94 96 22 9 41 7 89 -10 72 -24 102
-19 122 20 19 36 79 89 112 97 23 6 45 4 145 -12 34 -5 37 -4 47 24 6 17 20
35 31 42 12 6 21 17 21 26 0 12 -5 12 -32 -3 -48 -25 -171 -25 -195 1 -17 18
-17 19 2 11 11 -4 47 -9 80 -12 52 -4 65 -2 95 19 23 15 38 36 45 61 13 45 30
58 61 47 24 -9 34 -4 34 17 0 29 -123 -3 -164 -43 -36 -37 -47 -21 -11 16 31
32 106 60 161 60 23 0 37 6 44 20 17 32 49 44 76 29 21 -11 30 -10 60 4 41 20
176 42 199 33 31 -12 3 -26 -51 -26 -65 0 -139 -17 -154 -35 -17 -20 -1 -46
24 -39 17 4 25 -1 33 -19 9 -18 25 -28 60 -37 67 -16 61 -16 136 11 52 19 69
30 78 52 16 38 62 74 110 87 43 12 149 4 149 -11 0 -21 48 17 75 59 27 42 35
48 80 55 32 6 63 4 88 -3 47 -14 98 -5 90 16 -3 8 7 26 24 41 24 23 41 67 97
248 38 121 79 241 92 267 35 69 33 77 -18 71 -59 -8 -95 -28 -118 -66 l-20
-32 0 27 c0 47 105 109 162 95 11 -3 24 3 33 16 23 33 18 37 -20 21 -19 -7
-45 -14 -58 -14 -26 0 -65 36 -52 48 4 4 10 1 12 -5 6 -18 77 -16 112 1 30 16
91 80 91 97 0 6 5 7 11 4 6 -4 8 -13 5 -21 -9 -24 13 -15 52 20 l37 34 -26 7
c-38 10 -104 -12 -143 -46 -30 -25 -34 -27 -29 -9 13 47 102 86 180 77 43 -5
43 -4 43 29 0 42 -8 46 -56 29 -39 -14 -78 -11 -101 8 -24 18 -13 26 15 11 38
-20 75 -18 105 6 23 18 24 23 15 57 -5 20 -8 65 -6 99 l4 62 -32 -25 c-49 -37
-94 -41 -130 -9 l-29 26 41 -16 c38 -15 44 -15 77 1 20 9 43 28 52 41 20 31
31 84 17 84 -24 0 -44 -14 -53 -38 -7 -18 -13 -22 -20 -15 -15 15 5 49 40 67
23 12 27 20 23 45 -3 22 -10 31 -22 31 -10 0 -25 3 -33 6 -9 3 -26 -6 -41 -22
-35 -38 -43 -25 -11 21 14 21 24 40 22 41 -2 2 -22 -6 -45 -17 -39 -19 -45
-20 -99 -7 -31 8 -59 21 -61 28 -4 10 3 11 24 6 72 -18 101 -18 143 3 50 26
57 57 10 47 -27 -5 -30 -4 -19 9 7 8 21 15 30 15 21 0 44 57 34 83 -4 12 -1
17 10 17 8 0 20 9 26 21 9 16 8 24 -4 38 -20 22 -20 32 -2 25 16 -6 36 24 36
55 0 26 12 26 -395 -5z m218 -54 c20 0 20 -1 4 -17 -16 -16 -18 -16 -40 6 -18
20 -19 23 -4 17 10 -3 28 -6 40 -6z m-123 -10 c0 -16 -51 -30 -71 -20 -30 17
-22 25 26 26 25 0 45 -2 45 -6z m-262 -17 c9 3 25 8 35 12 13 6 16 3 11 -9
-11 -28 -83 -37 -111 -14 -23 19 -14 27 17 16 17 -5 38 -8 48 -5z m353 -19
c40 -20 33 -26 -15 -13 -39 11 -96 -3 -96 -23 0 -5 -4 -7 -10 -3 -14 8 -2 31
23 43 32 15 64 14 98 -4z m-831 -14 c-13 -24 -49 -34 -101 -27 -37 5 -75 25
-66 34 3 2 25 -1 50 -6 34 -8 54 -7 84 3 21 8 39 15 41 15 1 1 -2 -8 -8 -19z
m440 -15 c18 -22 9 -26 -34 -14 -43 12 -95 5 -139 -18 -36 -18 -46 -11 -18 14
28 24 55 31 122 32 39 1 60 -4 69 -14z m300 -40 c-16 -20 -74 -19 -90 0 -12
14 -8 15 26 9 31 -4 43 -2 54 11 9 11 16 13 18 6 2 -7 -2 -18 -8 -26z m157 20
c-5 -16 -72 -18 -85 -2 -10 11 -3 13 38 13 29 -1 49 -5 47 -11z m-1013 -21 c9
-8 16 -20 16 -25 0 -14 -16 -11 -31 7 -11 14 -27 16 -85 11 -39 -3 -86 -13
-104 -22 -35 -18 -52 -13 -29 10 35 34 204 49 233 19z m630 -21 c-24 -18 -89
-17 -104 2 -16 19 -5 34 12 17 17 -17 73 -15 89 4 10 12 14 13 18 3 2 -7 -4
-18 -15 -26z m-204 11 c0 -19 -24 -44 -52 -53 -38 -12 -103 -1 -126 23 -22 22
-8 31 20 13 39 -25 76 -29 108 -12 17 9 30 20 30 25 0 6 5 10 10 10 6 0 10 -3
10 -6z m524 -15 c-3 -6 -15 -8 -27 -5 -12 3 -30 -3 -45 -15 -31 -24 -42 -17
-17 11 20 22 102 30 89 9z m-815 -42 c-20 -16 -36 -19 -99 -15 -70 4 -129 22
-116 35 3 3 26 0 51 -7 56 -16 141 -8 163 14 12 12 18 13 21 5 2 -7 -7 -21
-20 -32z m459 1 c25 -21 11 -26 -35 -12 -55 17 -103 12 -150 -16 -27 -16 -33
-16 -33 -5 0 16 30 35 75 46 36 9 125 1 143 -13z m113 -27 c-24 -43 -134 -54
-170 -16 -15 16 -14 17 7 10 40 -12 112 -7 135 9 30 20 40 20 28 -3z m201 -1
c63 -18 50 -25 -45 -25 -78 0 -98 -3 -128 -22 -42 -27 -57 -29 -38 -7 24 29
100 60 154 63 11 0 37 -4 57 -9z m-482 -45 c-37 -40 -108 -45 -154 -12 -17 13
-11 14 55 10 57 -4 79 -1 94 11 30 23 32 19 5 -9z m347 -62 c-34 -31 -41 -33
-104 -33 -38 0 -75 5 -83 10 -10 7 8 10 60 10 69 0 79 3 110 29 48 40 62 26
17 -16z m89 -121 c-8 -23 -72 -52 -117 -52 -32 0 -106 27 -97 35 3 3 28 0 56
-6 59 -12 108 -1 137 31 21 23 29 20 21 -8z m198 -22 c7 -7 -9 -10 -50 -10
-52 0 -67 -5 -102 -30 -44 -31 -54 -27 -24 9 34 43 144 63 176 31z m-269 -64
c29 -13 27 -14 -36 -13 -75 0 -117 -19 -150 -69 -17 -27 -19 -27 -19 -7 0 31
39 72 85 88 50 18 82 18 120 1z m175 5 c0 -18 -47 -77 -79 -98 -46 -31 -116
-31 -148 -1 -34 32 -28 39 15 16 29 -16 46 -19 75 -14 40 8 102 55 112 87 6
19 25 27 25 10z m-270 -86 c0 -64 -100 -145 -177 -145 -34 0 -73 25 -73 47 0
15 2 14 18 0 26 -24 108 -22 148 2 21 13 38 36 49 65 17 45 35 61 35 31z m446
-32 c-10 -10 -19 5 -10 18 6 11 8 11 12 0 2 -7 1 -15 -2 -18z m-605 -3 l24
-20 -28 10 c-64 23 -110 12 -179 -42 -40 -31 -48 -27 -22 10 40 57 159 82 205
42z m540 5 c34 -16 33 -16 -33 -10 -77 7 -116 -7 -145 -55 -18 -31 -33 -39
-33 -17 0 21 30 57 64 78 38 23 101 25 147 4z m-671 -116 c-15 -35 -62 -77
-97 -85 -30 -8 -96 10 -113 31 -19 23 -3 31 19 11 11 -10 37 -20 58 -23 46 -6
86 22 118 81 23 42 33 30 15 -15z m-130 31 c11 -7 -3 -10 -46 -10 -54 0 -68
-4 -114 -36 -28 -19 -54 -34 -56 -31 -9 8 41 60 70 73 36 15 124 18 146 4z
m710 -15 c0 -37 -53 -90 -104 -105 -47 -13 -80 -7 -108 18 -30 26 -20 32 16
11 61 -35 146 -1 176 71 15 36 20 38 20 5z m-447 -81 c71 -12 50 -25 -31 -18
l-79 7 -42 -38 c-48 -44 -58 -24 -11 24 41 41 58 43 163 25z m181 -41 c-41
-83 -143 -110 -206 -54 -18 16 -30 33 -25 37 4 4 19 -3 33 -17 20 -19 37 -24
74 -24 57 0 92 27 111 82 7 24 14 32 21 25 7 -7 4 -23 -8 -49z m-819 -45 c-4
-14 -20 -38 -36 -54 -23 -22 -40 -29 -89 -32 -63 -5 -81 3 -102 41 -10 19 -9
19 20 -1 64 -46 158 -18 183 53 14 39 34 32 24 -7z m548 -45 c-10 -21 -29 -43
-43 -50 -51 -26 -170 -9 -170 23 0 10 8 10 37 -2 38 -16 97 -13 133 6 10 5 25
26 35 47 10 21 20 32 22 26 3 -7 -4 -30 -14 -50z m-166 41 c41 -11 14 -23 -37
-17 -44 5 -56 2 -100 -25 -53 -33 -65 -30 -27 6 39 37 105 52 164 36z m618 -9
c28 -13 26 -14 -35 -8 -57 4 -69 2 -100 -19 -65 -44 -67 -45 -49 -18 34 53
121 74 184 45z m-1429 -50 c17 -14 15 -15 -33 -9 -76 9 -118 -2 -158 -42 -28
-28 -35 -31 -35 -16 0 22 34 57 70 71 39 15 133 13 156 -4z m544 -26 c-68 -7
-107 -22 -142 -57 -33 -30 -37 -16 -7 21 29 37 132 69 174 53 29 -11 29 -11
-25 -17z m801 14 c-24 -46 -120 -104 -172 -105 -16 -1 -38 7 -49 17 -27 25
-25 40 2 21 12 -9 33 -16 45 -16 36 0 111 39 136 71 25 32 54 40 38 12z m-636
-49 c-41 -63 -146 -86 -192 -42 -34 32 -28 43 11 19 61 -38 126 -20 167 46 18
29 25 34 27 20 2 -10 -4 -29 -13 -43z m466 40 c39 -20 30 -30 -12 -15 -57 20
-93 14 -143 -24 -47 -37 -53 -38 -36 -4 27 50 133 74 191 43z m-1313 -91 c-7
-15 -29 -38 -48 -51 -31 -21 -43 -23 -99 -18 -59 5 -91 18 -91 36 0 4 19 1 43
-7 46 -16 120 -11 144 9 8 6 24 30 36 52 15 29 22 36 25 24 2 -10 -3 -30 -10
-45z m-127 37 c31 -17 22 -30 -13 -19 -80 22 -152 6 -210 -49 -20 -18 -28 -21
-28 -11 0 21 48 64 85 77 39 14 141 15 166 2z m1190 -21 c28 -15 14 -30 -17
-19 -49 19 -115 12 -151 -16 -45 -34 -57 -21 -15 17 29 26 40 29 98 29 36 0
74 -5 85 -11z m-471 -49 c-15 -28 -85 -59 -131 -60 -23 0 -46 8 -60 21 -21 18
-22 20 -4 14 11 -3 42 -9 68 -12 46 -6 49 -5 90 38 41 43 60 42 37 -1z m-871
-17 c-14 -38 -27 -52 -70 -74 -50 -25 -115 -24 -158 2 -43 26 -36 32 18 13 70
-24 126 -11 175 42 23 24 42 44 43 44 1 0 -2 -12 -8 -27z m1810 -44 c-28 -39
-74 -59 -138 -59 -42 0 -53 4 -70 26 -29 36 -26 53 3 25 56 -52 157 -33 198
38 18 33 24 37 26 21 2 -11 -7 -34 -19 -51z m61 45 c0 -8 -4 -12 -10 -9 -5 3
-10 13 -10 21 0 8 5 12 10 9 6 -3 10 -13 10 -21z m-2015 2 c18 -13 15 -14 -27
-9 -67 8 -110 -3 -168 -42 -48 -32 -56 -22 -13 17 49 44 168 64 208 34z m1371
-15 c-47 -90 -164 -126 -228 -70 -20 18 -20 20 -3 13 11 -4 46 -10 77 -12 l58
-4 47 51 c54 57 71 65 49 22z m-606 -7 c0 -42 -65 -100 -121 -108 -57 -8 -122
11 -127 38 -4 19 -4 19 24 1 40 -26 116 -25 152 1 15 12 36 37 47 57 11 20 21
37 23 37 1 0 2 -12 2 -26z m-195 3 c64 -17 42 -33 -24 -17 -40 9 -55 9 -87 -5
-21 -9 -47 -23 -57 -33 -18 -16 -19 -16 -16 3 4 22 80 65 114 65 11 0 42 -6
70 -13z m640 -2 c29 -14 27 -14 -32 -8 -76 7 -102 1 -142 -33 -24 -20 -31 -22
-31 -10 0 8 17 27 37 41 43 29 118 34 168 10z m481 -89 c-11 -27 -27 -42 -58
-56 -73 -33 -130 -21 -159 31 -10 20 -10 20 19 -1 63 -46 149 -24 184 49 26
53 38 34 14 -23z m-2001 32 c40 -12 40 -12 -46 -18 -74 -5 -93 -10 -138 -37
-28 -18 -51 -28 -51 -23 0 16 61 60 98 69 92 24 89 23 137 9z m1874 -3 c7 -7
-13 -9 -55 -7 -84 5 -106 -1 -143 -39 -19 -18 -31 -25 -31 -17 0 15 31 47 65
67 23 13 150 10 164 -4z m-1093 -40 c-4 -14 -24 -37 -46 -51 -35 -23 -46 -26
-92 -20 -53 7 -88 21 -88 35 0 4 26 1 58 -7 53 -14 60 -14 95 3 20 9 45 30 54
46 20 33 28 31 19 -6z m1482 2 c-18 -18 -37 -29 -42 -25 -14 11 33 58 57 58
16 0 13 -5 -15 -33z m-89 -27 c57 -26 49 -33 -16 -14 -67 20 -120 6 -168 -42
-36 -36 -48 -26 -17 13 20 26 97 63 132 63 14 0 45 -9 69 -20z m-606 -6 c47
-16 68 -43 25 -30 -89 26 -118 21 -187 -34 -32 -26 -51 -35 -51 -26 0 26 115
104 156 106 6 0 31 -7 57 -16z m181 -11 c-10 -42 -22 -61 -49 -79 -34 -22
-136 -22 -169 0 -37 24 -32 40 7 20 39 -21 108 -22 142 -4 14 7 33 31 42 52
20 44 36 51 27 11z m-1381 0 c7 -4 -29 -10 -79 -13 -80 -5 -95 -8 -128 -34
-38 -29 -59 -29 -36 -1 17 20 65 46 105 56 34 9 119 4 138 -8z m747 -54 c-18
-42 -73 -86 -118 -94 -47 -8 -117 17 -133 48 -11 19 -9 19 26 -3 48 -30 115
-31 153 -4 15 11 38 43 52 72 19 40 26 47 28 31 2 -11 -2 -34 -8 -50z m-1406
41 c7 -7 -18 -10 -72 -10 -91 0 -141 -15 -184 -57 -22 -21 -28 -23 -28 -11 0
30 41 60 115 85 44 14 152 10 169 -7z m140 -18 c-11 -15 -40 -37 -65 -50 -56
-30 -168 -28 -196 2 -17 18 -17 19 0 12 87 -30 171 -18 229 34 48 43 62 44 32
2z m2081 -46 c16 -12 8 -13 -66 -12 -92 1 -122 -10 -166 -63 -21 -24 -23 -25
-23 -5 0 27 36 60 85 78 52 19 146 20 170 2z m-1726 -47 c-25 -36 -90 -68
-136 -69 -37 0 -113 28 -113 41 0 12 17 11 42 -2 28 -15 109 -14 139 1 13 7
37 29 53 48 35 42 47 26 15 -19z m444 11 c10 -10 1 -11 -43 -6 -49 5 -61 3
-110 -24 l-54 -31 29 32 c17 17 39 35 50 40 27 12 113 5 128 -11z m160 -33
c-28 -49 -76 -69 -147 -63 -41 3 -65 10 -79 25 -27 27 -17 35 19 16 78 -40
150 -26 192 37 30 46 43 34 15 -15z m476 47 c51 -11 25 -22 -38 -17 -69 7
-122 -8 -173 -48 -46 -36 -53 -37 -31 -3 36 55 148 87 242 68z m931 -13 c0 -5
-25 -11 -55 -13 -43 -4 -64 -12 -95 -37 -25 -20 -40 -27 -40 -18 0 17 38 53
70 66 31 12 120 14 120 2z m-2485 -45 c17 -12 9 -13 -68 -9 -85 6 -89 5 -138
-26 -60 -37 -63 -38 -49 -10 19 34 87 59 166 59 45 0 77 -5 89 -14z m150 -36
c-41 -43 -102 -63 -175 -58 -99 7 -94 25 8 24 88 -1 89 -1 137 37 55 42 72 41
30 -3z m1746 24 c17 -8 29 -17 27 -19 -2 -2 -33 1 -70 7 -57 10 -72 9 -112 -6
-26 -10 -62 -33 -81 -51 -23 -21 -35 -27 -35 -17 0 22 62 77 101 89 52 17 136
15 170 -3z m512 -1 c-9 -25 -23 -42 -46 -54 -21 -12 -18 -4 18 44 23 30 37 35
28 10z m-2949 -44 c-56 -59 -199 -84 -269 -46 -29 15 -27 16 57 10 102 -7 157
9 204 58 16 16 30 25 32 19 3 -7 -8 -25 -24 -41z m1160 37 c52 -22 52 -37 0
-19 -56 19 -102 8 -159 -37 -44 -35 -49 -37 -36 -12 15 28 47 53 88 68 49 17
66 17 107 0z m776 -1 c0 -20 -57 -83 -93 -102 -17 -8 -53 -16 -80 -16 -41 -1
-53 3 -69 22 -25 31 -17 36 23 16 49 -26 112 -15 155 26 19 18 36 41 40 51 6
22 24 24 24 3z m-605 -28 c-4 -14 -20 -37 -36 -53 -41 -39 -131 -46 -172 -14
-37 29 -30 34 19 14 71 -30 137 -7 171 59 17 34 27 30 18 -6z m470 8 c28 -13
25 -14 -46 -8 -89 6 -135 -6 -184 -48 -18 -16 -36 -26 -39 -21 -7 11 39 54 79
75 38 20 149 21 190 2z m969 9 c33 -13 14 -19 -57 -19 -67 0 -76 -2 -115 -33
-23 -19 -42 -30 -42 -25 1 16 35 52 65 67 30 16 119 21 149 10z m-480 -76
c-29 -49 -99 -81 -183 -82 -49 0 -76 5 -95 17 -36 24 -33 41 4 22 41 -21 145
-19 197 4 22 11 51 33 64 50 29 39 37 32 13 -11z m521 25 c65 -6 67 -7 35 -15
-33 -8 -106 -3 -136 9 -23 9 -16 26 9 19 12 -3 54 -9 92 -13z m-698 -18 l28
-24 -50 15 c-77 23 -146 4 -212 -59 -37 -35 -44 -24 -12 17 55 70 192 99 246
51z m-1247 -10 c22 -12 18 -13 -41 -8 -79 7 -127 -7 -175 -49 -44 -39 -58 -28
-17 13 59 59 165 79 233 44z m1755 -35 c-64 -67 -204 -96 -248 -51 l-22 22 28
-10 c71 -27 163 -4 221 54 46 45 66 31 21 -15z m-1582 8 c-54 -93 -196 -115
-264 -41 l-24 25 40 -20 c92 -45 165 -33 224 38 39 47 52 46 24 -2z m445 21
c13 -5 20 -13 17 -19 -4 -7 -12 -7 -25 0 -29 15 -93 12 -120 -7 -14 -9 -40
-30 -57 -46 -18 -17 -36 -28 -39 -24 -15 15 31 60 89 87 60 29 76 30 135 9z
m1500 -1 c-7 -20 -79 -67 -122 -79 -40 -11 -112 -4 -122 13 -10 16 2 19 32 8
41 -16 94 -4 150 35 54 36 68 42 62 23z m-1042 -65 c-21 -41 -68 -82 -107 -93
-54 -16 -130 -12 -151 7 -29 26 -21 33 19 17 69 -29 164 -4 212 57 37 46 47
50 27 12z m-1896 -2 c-14 -28 -55 -57 -104 -76 -34 -13 -57 -15 -111 -8 -41 5
-70 13 -73 21 -3 10 5 12 34 6 22 -4 63 -8 92 -7 47 0 61 6 110 41 67 48 66
47 52 23z m655 -47 c-38 -59 -132 -87 -207 -62 -24 8 -44 22 -46 31 -3 14 4
13 47 -5 44 -19 54 -20 92 -9 23 7 60 30 83 51 43 41 60 37 31 -6z m1995 32
c0 -26 -53 -78 -98 -97 -44 -19 -96 -23 -142 -10 -42 12 -4 24 53 17 46 -6 57
-4 99 23 26 16 54 41 64 55 19 30 24 32 24 12z m-406 -47 c-58 -63 -147 -85
-219 -55 -48 20 -44 29 8 20 89 -15 158 0 202 46 16 16 31 28 34 25 2 -3 -9
-19 -25 -36z m-687 -65 c-68 -65 -152 -80 -177 -33 -11 20 3 28 15 9 10 -17
78 -11 111 9 18 11 45 36 60 55 23 29 30 33 33 19 2 -10 -14 -34 -42 -59z
m-1210 19 c-36 -68 -92 -96 -174 -86 -43 5 -64 13 -87 35 l-31 29 42 -20 c29
-14 62 -21 104 -21 62 0 63 1 108 48 25 27 47 48 49 46 2 -1 -3 -15 -11 -31z
m1107 17 c45 -17 28 -25 -45 -22 -83 4 -118 -8 -159 -54 -32 -37 -40 -41 -40
-20 0 20 75 85 107 92 16 3 33 7 38 9 21 7 75 5 99 -5z m-648 -15 c17 -14 14
-15 -42 -9 -69 7 -106 -7 -161 -59 -18 -17 -33 -26 -33 -20 0 19 48 69 82 86
42 21 128 22 154 2z m1534 -34 c0 -28 -46 -78 -92 -102 -51 -26 -153 -28 -177
-4 -15 16 -15 17 4 12 102 -27 175 -3 235 79 29 39 30 40 30 15z m-2535 -39
c23 -12 26 -17 13 -20 -9 -2 -26 2 -37 7 -26 14 -107 14 -134 0 -12 -6 -32
-21 -44 -32 -34 -30 -28 -5 6 27 49 47 128 54 196 18z m221 -9 c-3 -11 -22
-35 -42 -54 -34 -33 -38 -34 -125 -38 -71 -2 -95 0 -115 14 -38 24 -24 28 42
11 43 -11 72 -12 106 -6 59 12 78 23 107 67 23 36 37 39 27 6z m640 -21 c-29
-90 -172 -144 -240 -91 -14 11 -31 30 -38 42 -10 19 -7 18 20 -5 42 -35 65
-41 118 -33 50 7 109 57 120 101 4 16 10 22 16 16 6 -6 7 -19 4 -30z m-159 3
l28 -16 -40 6 c-112 16 -145 11 -193 -31 -45 -38 -56 -32 -19 11 46 53 158 68
224 30z m665 -3 c8 -8 -6 -10 -58 -5 -80 6 -120 -6 -179 -58 -25 -22 -35 -27
-28 -14 16 30 54 62 93 80 40 18 153 16 172 -3z m343 -11 c14 -5 -2 -10 -50
-13 -77 -6 -126 -26 -167 -71 -18 -18 -28 -24 -28 -15 0 24 46 67 92 88 44 20
117 25 153 11z m-1182 -109 c-59 -79 -179 -97 -239 -37 -36 36 -29 50 11 20
19 -15 52 -29 74 -32 72 -10 157 50 162 114 1 10 4 5 6 -11 3 -18 -2 -38 -14
-54z m508 48 c10 -6 19 -17 19 -25 0 -19 -9 -19 -30 0 -26 23 -82 21 -136 -6
-38 -19 -52 -32 -61 -59 -9 -30 -12 -32 -19 -16 -11 28 15 67 61 93 44 25 131
31 166 13z m394 -61 c5 -5 -16 -9 -58 -9 -81 0 -157 -27 -204 -72 -38 -37 -58
-30 -22 8 35 37 78 62 140 79 54 15 126 12 144 -6z m300 -9 c4 -6 -11 -10 -39
-10 -59 0 -86 -11 -135 -56 -35 -31 -41 -33 -41 -17 0 18 62 72 100 86 26 9
109 8 115 -3z m-1731 -14 c28 -7 52 -18 54 -24 5 -16 -7 -15 -77 4 -72 20
-100 14 -152 -33 -22 -20 -42 -33 -46 -30 -12 13 30 59 70 78 49 22 83 23 151
5z m1229 -85 c-32 -42 -117 -81 -178 -81 -57 0 -85 7 -85 21 0 4 22 5 48 2 75
-9 154 18 194 67 36 42 53 35 21 -9z m402 7 c-11 -34 -54 -76 -89 -87 -45 -14
-143 -22 -171 -15 -39 10 -30 27 10 20 41 -8 150 10 182 30 12 7 30 27 39 44
21 35 38 40 29 8z m-1055 -34 c-31 -81 -126 -126 -220 -105 -38 8 -96 48 -85
59 2 2 21 -6 41 -19 79 -48 190 -21 237 58 30 49 44 53 27 7z m-161 -1 c27
-34 20 -41 -15 -14 -61 48 -195 15 -229 -56 -15 -31 -35 -45 -35 -24 0 30 25
65 67 91 41 26 56 30 119 30 67 0 74 -2 93 -27z m654 8 c10 -11 0 -12 -48 -6
-73 8 -101 -2 -160 -56 -50 -46 -60 -39 -18 12 40 47 97 70 161 66 29 -2 58
-9 65 -16z m336 3 c56 -11 33 -24 -33 -19 -76 7 -124 -9 -173 -57 -24 -23 -33
-28 -33 -16 0 24 53 73 92 85 39 13 103 16 147 7z m-486 -91 c-11 -16 -44 -40
-73 -55 -68 -36 -165 -40 -201 -8 l-24 21 35 -8 c50 -11 145 -5 186 12 20 8
43 29 55 50 15 26 25 33 32 26 8 -8 5 -19 -10 -38z m-919 13 c32 -13 66 -50
66 -70 0 -5 -12 2 -27 16 -57 53 -93 59 -158 29 -59 -26 -75 -46 -75 -92 0
-24 -4 -38 -10 -34 -5 3 -10 23 -10 44 0 46 38 86 101 106 57 18 73 18 113 1z
m240 -29 c-9 -32 -44 -68 -81 -83 -59 -25 -195 -13 -222 20 -9 11 0 11 51 -1
35 -8 84 -13 110 -10 55 5 112 43 122 82 4 14 11 23 17 20 5 -4 7 -16 3 -28z
m521 -127 c15 -6 6 -9 -33 -9 -65 -1 -112 -22 -152 -67 -23 -27 -30 -31 -30
-16 0 22 55 77 90 91 31 12 98 13 125 1z m-95 -85 c0 -31 -35 -68 -85 -91 -39
-19 -67 -24 -132 -24 -45 0 -85 5 -88 10 -3 6 -3 10 2 10 169 5 180 6 213 26
19 11 44 34 55 52 22 34 35 41 35 17z m-257 -31 c26 -4 44 -11 41 -16 -3 -5
-23 -7 -44 -3 -56 10 -143 -17 -196 -60 -46 -38 -72 -41 -40 -6 32 35 96 74
134 81 52 11 54 11 105 4z m-104 -114 c-15 -41 -70 -87 -121 -101 -59 -15
-154 -7 -176 15 -16 17 -15 18 18 10 19 -5 63 -8 97 -8 74 2 117 24 152 77 29
45 44 48 30 7z m-199 -10 c11 -7 -3 -10 -46 -10 -80 0 -153 -23 -209 -66 -33
-25 -43 -29 -35 -15 14 28 69 68 116 85 45 17 152 20 174 6z"/>
<path d="M8293 7040 c-133 -24 -153 -30 -74 -25 35 3 98 6 140 7 42 0 60 3 41
6 l-35 4 35 13 c49 19 15 17 -107 -5z"/>
<path d="M8000 6991 c-52 -9 -334 -57 -627 -106 -292 -49 -529 -93 -526 -98 3
-4 12 -5 22 -2 9 4 309 7 666 8 511 0 594 2 385 7 -146 4 -400 8 -564 9 -165
0 -296 4 -292 9 4 4 257 5 562 3 402 -2 554 0 554 8 0 8 -136 11 -482 12 -284
1 -466 5 -443 10 22 4 253 8 513 8 307 1 472 4 472 11 0 6 -138 10 -392 11
-236 1 -377 5 -353 10 22 4 234 8 470 9 237 1 439 5 450 10 11 4 -162 6 -385
4 -303 -3 -396 -1 -370 7 20 7 169 14 345 18 171 4 258 8 194 9 -64 1 -152 5
-195 9 -130 11 -52 21 201 24 191 3 205 4 83 6 -87 2 -148 8 -148 13 0 13 -27
12 -140 -9z"/>
<path d="M8295 6870 c3 -5 33 -10 65 -10 32 0 62 5 65 10 4 6 -20 10 -65 10
-45 0 -69 -4 -65 -10z"/>
<path d="M8244 6845 c-4 -8 -15 -15 -25 -15 -10 0 -19 -7 -19 -15 0 -22 45
-65 67 -65 31 0 83 38 83 61 0 18 -4 20 -29 14 -23 -5 -29 -2 -34 14 -6 24
-35 28 -43 6z m32 -31 c-4 -12 -10 -14 -17 -7 -5 5 -7 17 -3 27 4 12 10 14 17
7 5 -5 7 -17 3 -27z m58 -8 c-3 -7 -17 -18 -32 -25 l-27 -11 28 25 c32 28 39
31 31 11z m-89 -16 c16 -17 16 -20 3 -15 -9 4 -19 13 -22 21 -7 19 -2 18 19
-6z"/>
<path d="M8360 6830 c0 -5 16 -10 35 -10 19 0 35 5 35 10 0 6 -16 10 -35 10
-19 0 -35 -4 -35 -10z"/>
<path d="M8380 6790 c20 -13 50 -13 50 0 0 6 -15 10 -32 10 -25 0 -29 -3 -18
-10z"/>
<path d="M6830 6760 c0 -6 90 -10 249 -10 156 0 252 4 256 10 4 7 -82 10 -249
10 -164 0 -256 -4 -256 -10z"/>
<path d="M7349 6746 c-8 -16 -17 -22 -30 -19 -16 5 -19 0 -19 -34 0 -27 6 -46
20 -58 20 -18 21 -18 47 1 36 27 49 78 28 110 -20 30 -33 30 -46 0z m40 -18
c9 -26 -4 -64 -25 -72 -17 -7 -19 45 -4 75 14 25 19 24 29 -3z m-59 -51 c0
-18 -2 -19 -10 -7 -13 20 -13 43 0 35 6 -3 10 -16 10 -28z"/>
<path d="M7460 6760 c85 -12 678 -12 685 0 4 7 -120 10 -367 9 -218 -1 -350
-5 -318 -9z"/>
<path d="M8398 6753 c6 -2 18 -2 25 0 6 3 1 5 -13 5 -14 0 -19 -2 -12 -5z"/>
<path d="M6810 6720 c-10 -6 60 -10 201 -12 242 -3 329 4 174 15 -143 10 -357
8 -375 -3z"/>
<path d="M7434 6718 c-6 -9 797 -15 816 -6 8 4 -171 8 -398 10 -228 2 -416 0
-418 -4z"/>
<path d="M8305 6710 c3 -5 33 -10 66 -10 38 0 58 4 54 10 -3 6 -33 10 -66 10
-38 0 -58 -4 -54 -10z"/>
<path d="M6781 6676 c2 -2 114 -6 249 -10 165 -4 240 -3 230 4 -14 9 -490 15
-479 6z"/>
<path d="M7436 6672 c-4 -8 137 -12 491 -14 274 -2 500 -2 502 0 16 9 -57 11
-495 18 -349 5 -493 4 -498 -4z"/>
<path d="M6835 6620 c93 -12 385 -12 385 0 0 6 -80 9 -222 9 -151 -1 -204 -4
-163 -9z"/>
<path d="M7470 6623 c0 -11 387 -23 737 -23 142 0 223 4 223 10 0 7 -156 10
-449 10 -247 0 -463 3 -480 6 -17 4 -31 2 -31 -3z"/>
<path d="M4720 6592 c42 -16 -34 -17 -1352 -20 -921 -1 -1398 -5 -1398 -12 0
-7 495 -10 1453 -11 l1452 0 60 -23 c44 -17 60 -28 60 -42 0 -19 -35 -19
-1515 -24 l-1515 -5 1498 -3 c975 -1 1496 -5 1492 -12 -3 -5 -57 -25 -119 -45
l-112 -35 -1377 0 c-1038 0 -1377 -3 -1377 -12 0 -8 328 -10 1346 -5 740 3
1344 4 1343 2 -2 -1 -83 -27 -179 -56 l-175 -54 -1170 -5 -1170 -5 1107 -3
c609 -1 1109 -5 1112 -10 2 -4 -91 -36 -208 -70 l-213 -62 -897 0 c-591 0
-896 -3 -896 -10 0 -7 291 -10 853 -11 l852 -1 -85 -28 c-47 -15 -82 -28 -77
-29 7 -1 1170 335 1351 390 95 30 156 68 156 98 0 18 -71 48 -200 85 -131 38
-175 46 -100 18z"/>
<path d="M6760 6552 c0 -9 1659 -27 1668 -17 3 3 3 7 1 9 -9 8 -1669 17 -1669
8z"/>
<path d="M6825 6492 c15 -16 1605 -29 1605 -14 0 9 -178 12 -698 12 -385 0
-748 3 -808 6 -77 5 -106 3 -99 -4z"/>
<path d="M6870 6430 c0 -7 188 -10 545 -10 300 0 545 -2 545 -4 0 -3 -4 -16
-9 -29 l-9 -24 -508 5 c-379 4 -505 2 -500 -7 5 -8 142 -11 503 -11 447 0 495
-2 489 -16 -3 -9 -6 -34 -6 -56 0 -37 -2 -40 -22 -34 -13 4 -41 10 -62 13
l-39 6 28 -52 c16 -28 43 -60 60 -71 67 -41 188 -12 218 53 38 82 32 95 -33
72 -23 -8 -44 -15 -45 -15 -2 0 -5 23 -7 51 l-3 52 207 -7 c142 -5 208 -3 208
4 0 6 -73 10 -213 10 l-214 0 -11 25 c-7 14 -12 29 -12 32 0 3 101 3 225 -1
124 -3 225 -2 225 2 0 5 -223 12 -497 15 -718 10 -1063 9 -1063 -3z m1120 -80
c14 -34 9 -119 -9 -164 -11 -27 -13 -28 -28 -13 -24 24 -29 109 -8 162 9 25
20 45 25 45 4 0 13 -14 20 -30z m110 -109 c0 -27 -23 -63 -52 -81 -44 -27 -50
-25 -46 12 2 24 12 38 37 55 35 24 61 30 61 14z m-202 -23 c29 -32 46 -78 28
-78 -20 0 -59 34 -79 69 l-18 31 24 0 c13 0 33 -10 45 -22z"/>
<path d="M7165 6269 c170 -9 474 -9 550 1 34 4 -102 7 -310 7 -266 0 -333 -2
-240 -8z"/>
<path d="M8218 6263 c39 -2 105 -2 145 0 39 1 7 3 -73 3 -80 0 -112 -2 -72 -3z"/>
<path d="M7150 6200 c-14 -4 128 -8 315 -9 223 0 335 3 325 9 -18 12 -603 12
-640 0z"/>
<path d="M8145 6200 c-4 -6 45 -10 139 -10 91 0 146 4 146 10 0 6 -53 10 -139
10 -83 0 -142 -4 -146 -10z"/>
<path d="M7465 6110 l-230 -6 303 -2 c196 -1 302 2 302 8 0 6 -29 9 -72 8 -40
-1 -176 -5 -303 -8z"/>
<path d="M8095 6110 c4 -6 72 -10 171 -10 103 0 164 4 164 10 0 6 -64 10 -171
10 -111 0 -168 -3 -164 -10z"/>
<path d="M7630 6009 c461 -10 800 -10 800 1 0 7 -186 9 -542 8 -494 -2 -517
-2 -258 -9z"/>
<path d="M3455 5990 c-13 -5 -14 -9 -5 -9 8 0 24 4 35 9 13 5 14 9 5 9 -8 0
-24 -4 -35 -9z"/>
<path d="M3260 5935 l-145 -44 -572 -1 c-375 0 -573 -3 -573 -10 0 -7 181 -10
523 -10 288 0 515 -4 507 -9 -8 -5 -159 -50 -335 -101 l-320 -93 -187 6 c-120
4 -188 3 -188 -3 0 -6 62 -10 158 -10 93 0 151 -4 142 -9 -8 -5 -79 -28 -157
-52 -79 -23 -141 -44 -139 -47 2 -2 35 6 73 17 37 11 363 106 723 211 360 106
657 194 659 196 11 10 -36 -1 -169 -41z"/>
<path d="M7425 5930 c-4 -7 165 -10 499 -10 331 0 506 3 506 10 0 7 -173 10
-499 10 -323 0 -502 -4 -506 -10z"/>
<path d="M7460 5810 c0 -7 168 -10 485 -10 317 0 485 3 485 10 0 7 -168 10
-485 10 -317 0 -485 -3 -485 -10z"/>
<path d="M7490 5700 c-10 -6 142 -10 463 -10 262 0 477 3 477 8 0 11 -922 14
-940 2z"/>
<path d="M7560 5580 c93 -11 879 -10 855 0 -11 5 -222 8 -470 8 -247 -1 -421
-4 -385 -8z"/>
<path d="M7497 5468 c-7 -4 132 -8 309 -8 176 0 389 -3 472 -7 132 -5 152 -4
152 9 0 13 -56 15 -461 14 -253 -1 -466 -4 -472 -8z"/>
<path d="M7500 5350 c0 -7 162 -10 465 -10 303 0 465 3 465 10 0 7 -162 10
-465 10 -303 0 -465 -3 -465 -10z"/>
<path d="M5340 5321 c-7 -15 -7 -21 0 -21 12 0 25 28 17 36 -3 3 -10 -4 -17
-15z"/>
<path d="M5114 5270 c-27 -11 -71 -70 -52 -69 7 0 53 15 102 33 l90 33 -48 6
c-59 8 -65 8 -92 -3z"/>
<path d="M7483 5228 c-2 -5 -1 -8 4 -8 4 1 218 -2 476 -4 368 -5 467 -3 467 7
0 9 -103 12 -471 12 -259 0 -473 -3 -476 -7z"/>
<path d="M4865 5055 c-394 -151 -465 -175 -465 -160 0 3 9 23 20 45 22 44 25
72 10 101 -9 15 -15 17 -30 9 -26 -14 -30 -13 -30 9 0 11 -12 34 -26 51 -25
29 -28 30 -44 15 -17 -16 -26 -33 -50 -99 -10 -27 -11 -28 -35 -12 -37 24 -45
20 -45 -24 0 -52 20 -90 65 -125 20 -15 33 -31 28 -35 -4 -5 -509 -198 -1122
-430 -1149 -434 -1184 -448 -1165 -449 6 -1 103 34 215 76 l204 78 390 5 c215
3 388 8 385 10 -3 2 -160 7 -350 10 l-345 5 220 85 220 85 955 5 c525 3 957 7
960 10 3 3 -404 7 -905 10 l-910 5 185 73 185 72 815 0 c509 0 821 4 830 10
10 6 -199 10 -600 11 -338 1 -689 5 -780 8 l-165 6 177 68 178 67 665 0 c433
0 665 3 665 10 0 6 -222 11 -632 12 l-633 3 165 65 165 65 508 3 c320 2 507 6
507 12 0 6 -168 10 -457 11 l-458 1 55 25 c30 14 96 39 145 56 l90 30 323 2
c177 1 325 5 329 9 3 3 -126 6 -287 6 -183 0 -290 4 -284 9 5 6 73 35 150 65
l142 56 145 0 c176 0 212 18 45 22 l-113 3 123 49 c67 26 122 50 122 52 0 11
-58 -10 -455 -161z m-508 -2 c6 -27 -36 -179 -47 -166 -3 5 -16 34 -29 66 -25
62 -23 82 10 137 l21 34 19 -23 c11 -13 22 -35 26 -48z m63 -50 c0 -34 -31
-103 -53 -122 -15 -12 -17 -10 -17 15 0 63 33 134 61 134 5 0 9 -12 9 -27z
m-186 -31 c26 -28 53 -98 42 -109 -9 -10 -77 48 -87 74 -24 64 -1 82 45 35z"/>
<path d="M4823 5169 c-27 -8 -99 -77 -89 -86 3 -3 39 10 186 64 42 16 43 17
20 24 -34 10 -79 9 -117 -2z"/>
<path d="M7460 5100 c0 -7 168 -10 485 -10 317 0 485 3 485 10 0 7 -168 10
-485 10 -317 0 -485 -3 -485 -10z"/>
<path d="M4470 5010 c0 -23 8 -24 47 -9 26 10 27 12 8 19 -35 15 -55 11 -55
-10z"/>
<path d="M7425 4960 c-12 -5 167 -9 425 -9 245 -1 475 -4 513 -8 58 -5 67 -4
67 11 0 15 -42 16 -492 15 -271 0 -502 -4 -513 -9z"/>
<path d="M4115 4880 c-23 -26 -15 -34 18 -19 15 7 23 17 20 25 -7 19 -17 18
-38 -6z"/>
<path d="M3865 4821 c-17 -10 -39 -30 -48 -45 -27 -40 -13 -37 168 34 23 9 26
13 15 20 -25 16 -103 11 -135 -9z"/>
<path d="M7360 4810 c0 -7 185 -10 535 -10 350 0 535 3 535 10 0 7 -185 10
-535 10 -350 0 -535 -3 -535 -10z"/>
<path d="M3560 4723 c-29 -15 -77 -79 -67 -90 3 -3 187 63 194 70 7 7 -26 23
-62 31 -20 4 -42 0 -65 -11z"/>
<path d="M7295 4650 c-4 -7 187 -10 564 -10 374 0 571 3 571 10 0 7 -195 10
-564 10 -366 0 -567 -4 -571 -10z"/>
<path d="M3270 4599 c-43 -17 -89 -69 -61 -69 22 0 181 63 181 71 0 12 -88 10
-120 -2z"/>
<path d="M7675 4510 c-21 -40 -29 -75 -33 -127 -2 -40 -7 -73 -11 -73 -3 0
-21 4 -39 9 -34 10 -37 6 -22 -33 9 -26 63 -66 88 -66 7 0 26 21 43 48 30 46
31 49 26 147 -2 55 -9 111 -14 125 -10 24 -11 23 -38 -30z m39 -80 c6 -70 4
-87 -14 -128 -19 -41 -23 -45 -32 -29 -17 31 -13 147 7 195 9 23 21 42 25 42
4 0 10 -36 14 -80z m-84 -150 c19 -19 27 -40 14 -40 -14 0 -45 22 -54 40 -15
27 13 27 40 0z"/>
<path d="M2944 4484 c-17 -8 -46 -31 -65 -50 l-33 -34 121 42 c69 25 116 46
110 50 -20 13 -101 8 -133 -8z"/>
<path d="M7300 4490 c101 -12 328 -11 335 0 4 7 -64 9 -197 8 -145 -1 -184 -3
-138 -8z"/>
<path d="M7755 4490 c4 -6 128 -10 341 -10 216 0 334 4 334 10 0 6 -120 10
-341 10 -224 0 -338 -3 -334 -10z"/>
<path d="M2584 4359 c-30 -9 -101 -76 -91 -86 7 -6 247 80 247 90 0 10 -118 7
-156 -4z"/>
<path d="M7210 4320 c0 -12 266 -12 295 0 12 5 -40 9 -137 9 -99 1 -158 -3
-158 -9z"/>
<path d="M7770 4320 c0 -6 117 -10 330 -10 213 0 330 4 330 10 0 6 -117 10
-330 10 -213 0 -330 -4 -330 -10z"/>
<path d="M3345 4150 c-14 -27 -25 -56 -25 -65 0 -26 -15 -17 -48 31 -18 25
-38 44 -45 41 -7 -2 -16 -24 -21 -50 -28 -141 80 -275 167 -207 34 27 67 98
67 144 0 39 -46 156 -61 156 -5 0 -20 -22 -34 -50z m58 -23 c21 -52 22 -105 1
-156 -14 -36 -50 -71 -71 -71 -10 0 -9 148 1 180 13 40 38 90 45 90 3 0 14
-19 24 -43z m-133 -39 c26 -36 30 -49 30 -110 0 -37 -4 -68 -8 -68 -16 0 -53
47 -62 81 -15 51 -11 139 6 139 2 0 17 -19 34 -42z"/>
<path d="M7185 4130 c-4 -7 205 -10 619 -10 411 0 626 3 626 10 0 7 -213 10
-619 10 -403 0 -622 -4 -626 -10z"/>
<path d="M3450 4120 c0 -7 153 -10 439 -10 283 0 442 4 446 10 4 7 -145 10
-439 10 -291 0 -446 -3 -446 -10z"/>
<path d="M2560 3920 l-595 -5 613 -3 c407 -1 611 1 607 8 -3 6 -12 9 -18 8 -7
-2 -280 -5 -607 -8z"/>
<path d="M7207 3918 c-7 -4 266 -8 606 -8 339 0 617 3 617 8 0 9 -1208 9
-1223 0z"/>
<path d="M3578 3913 c79 -2 205 -2 280 0 75 1 11 3 -143 3 -154 0 -216 -2
-137 -3z"/>
<path d="M1988 3659 c-12 -4 415 -7 950 -8 703 -1 972 2 972 10 0 12 -1878 10
-1922 -2z"/>
<path d="M7300 3660 c0 -11 504 -12 895 -1 195 6 133 8 -327 9 -373 1 -568 -1
-568 -8z"/>
<path d="M8082 3477 c-5 -6 -17 -27 -27 -46 l-17 -33 -22 21 c-12 12 -31 21
-41 21 -16 0 -17 -6 -12 -64 l6 -63 -38 0 c-53 0 -67 -10 -45 -34 20 -23 114
-59 152 -59 29 0 61 23 88 65 38 58 -4 242 -44 192z m44 -84 c8 -42 -17 -111
-52 -144 l-26 -24 4 90 c2 68 8 98 22 120 18 27 19 27 32 10 8 -10 17 -34 20
-52z m-110 -9 c8 -20 14 -57 12 -82 l-3 -47 -18 27 c-22 32 -36 138 -18 138 7
0 19 -16 27 -36z m-36 -106 c11 -12 20 -25 20 -30 0 -11 -71 19 -90 37 -12 13
-10 15 17 15 20 0 40 -8 53 -22z"/>
<path d="M1970 3330 c0 -7 354 -10 1041 -10 691 0 1038 3 1034 10 -4 7 -362
10 -1041 10 -683 0 -1034 -3 -1034 -10z"/>
<path d="M7355 3330 c-4 -7 78 -10 240 -10 162 0 244 3 240 10 -4 6 -95 10
-240 10 -145 0 -236 -4 -240 -10z"/>
<path d="M8200 3330 c0 -6 45 -10 115 -10 70 0 115 4 115 10 0 6 -45 10 -115
10 -70 0 -115 -4 -115 -10z"/>
<path d="M1970 2990 c0 -7 428 -10 1265 -10 837 0 1265 3 1265 10 0 7 -428 10
-1265 10 -837 0 -1265 -3 -1265 -10z"/>
<path d="M7240 2990 c0 -7 205 -10 595 -10 390 0 595 3 595 10 0 7 -205 10
-595 10 -390 0 -595 -3 -595 -10z"/>
<path d="M2535 2845 c-15 -41 -30 -75 -33 -75 -4 0 -22 15 -42 34 -19 19 -44
37 -55 40 -19 6 -20 2 -14 -86 l5 -91 47 -43 c26 -23 67 -49 92 -57 43 -15 46
-15 97 11 62 32 98 90 98 159 0 53 -19 57 -61 12 -20 -21 -30 -27 -33 -17 -2
7 -16 52 -30 101 -15 48 -31 87 -35 87 -5 0 -21 -34 -36 -75z m59 -22 c27 -86
30 -140 11 -184 -21 -46 -29 -48 -51 -14 -25 38 -30 146 -10 200 10 25 21 45
26 45 5 0 15 -21 24 -47z m-134 -38 c39 -41 97 -195 73 -195 -39 0 -104 54
-122 102 -10 27 -4 128 8 128 4 0 22 -16 41 -35z m235 -128 c-13 -29 -70 -75
-80 -65 -8 7 45 121 67 145 l23 25 3 -36 c2 -19 -4 -50 -13 -69z"/>
<path d="M7465 2673 c-263 -2 -382 -7 -390 -14 -7 -9 7 -10 54 -5 35 3 342 6
682 6 406 0 619 3 619 10 0 6 -103 9 -292 8 -161 -2 -464 -4 -673 -5z"/>
<path d="M3000 2650 c-116 -3 99 -7 498 -8 463 -1 702 1 702 8 0 11 -815 11
-1200 0z"/>
<path d="M1970 2640 c0 -6 73 -10 200 -10 127 0 200 4 200 10 0 6 -73 10 -200
10 -127 0 -200 -4 -200 -10z"/>
<path d="M2225 2310 c-143 -3 402 -6 1210 -8 952 -1 1465 2 1455 8 -16 10
-2183 10 -2665 0z"/>
<path d="M6625 2310 c-4 -7 298 -10 899 -10 597 0 906 3 906 10 0 7 -306 10
-899 10 -589 0 -902 -3 -906 -10z"/>
<path d="M7922 1914 c-18 -66 -32 -129 -32 -140 -1 -18 -1 -18 -16 1 -9 11
-29 48 -45 83 -15 34 -30 62 -33 62 -2 0 -4 -24 -4 -53 0 -30 -5 -64 -11 -76
-19 -35 -18 -103 3 -149 11 -23 23 -42 28 -42 12 0 10 6 -12 42 -24 40 -25 95
-1 161 l17 48 23 -41 c13 -23 38 -78 56 -123 21 -51 39 -83 50 -85 14 -3 12 5
-11 44 -24 41 -28 58 -26 114 1 36 13 103 25 150 l24 85 17 -39 c34 -81 48
-159 43 -241 -2 -44 -8 -88 -12 -97 -4 -10 -3 -18 3 -18 5 0 13 10 16 23 8 28
28 52 95 107 l54 44 -7 -39 c-8 -39 -22 -71 -52 -112 -9 -13 -12 -23 -6 -23
18 0 52 66 72 139 11 39 20 73 20 77 0 3 -32 -24 -71 -60 -39 -36 -75 -66 -80
-66 -5 0 -9 20 -9 43 0 54 -30 174 -62 247 l-24 55 -32 -121z"/>
<path d="M1970 1980 c0 -7 566 -10 1679 -10 1109 0 1682 3 1686 10 4 7 -558
10 -1679 10 -1117 0 -1686 -3 -1686 -10z"/>
<path d="M5860 1980 c0 -7 343 -10 1009 -10 663 0 1012 3 1016 10 4 7 -335 10
-1009 10 -671 0 -1016 -3 -1016 -10z"/>
<path d="M8135 1980 c189 -11 295 -11 295 0 0 6 -75 9 -207 8 -196 -1 -201 -2
-88 -8z"/>
<path d="M3377 1849 c-14 -24 -28 -56 -31 -71 -3 -16 -8 -40 -11 -54 l-6 -26
-38 41 c-54 58 -64 55 -59 -21 5 -61 23 -126 33 -116 3 3 -2 24 -10 48 -8 23
-15 58 -15 77 0 30 2 33 20 23 20 -11 63 -78 74 -117 6 -17 2 -22 -16 -26 -15
-3 -9 -5 15 -6 36 -1 37 0 26 20 -28 53 12 234 51 234 26 0 54 -67 61 -145 l6
-75 1 60 c2 77 -12 128 -47 167 l-28 32 -26 -45z"/>
<path d="M1970 1670 c0 -7 209 -10 606 -10 401 0 603 3 599 10 -4 6 -217 10
-606 10 -393 0 -599 -3 -599 -10z"/>
<path d="M3540 1670 c-10 -6 665 -10 2079 -10 1152 0 2092 2 2090 4 -11 9
-4155 16 -4169 6z"/>
<path d="M8258 1663 c34 -2 88 -2 120 0 31 2 3 3 -63 3 -66 0 -92 -1 -57 -3z"/>
<path d="M3452 1615 c-11 -12 -10 -15 3 -15 8 0 15 7 15 15 0 18 -2 18 -18 0z"/>
<path d="M1070 1475 c0 -16 7 -55 16 -87 31 -109 120 -178 231 -178 32 0 33 2
33 38 0 53 -15 101 -49 154 -37 57 -92 88 -173 95 l-58 6 0 -28z"/>
<path d="M1225 1144 c-81 -30 -139 -114 -151 -220 l-7 -57 62 6 c124 11 208
101 219 232 l4 55 -43 -1 c-24 0 -62 -7 -84 -15z"/>
<path d="M1410 1133 c0 -45 29 -134 57 -175 33 -49 111 -88 175 -88 l48 0 0
40 c0 56 -35 141 -72 177 -45 42 -83 60 -151 68 l-57 7 0 -29z"/>
<path d="M9183 1476 c-76 -36 -133 -135 -133 -233 0 -38 12 -41 101 -22 98 21
179 132 179 246 0 33 0 33 -47 33 -30 0 -68 -10 -100 -24z"/>
<path d="M8869 1144 c-87 -26 -159 -136 -159 -242 l0 -34 59 4 c120 9 204 98
218 231 l6 57 -39 -1 c-21 0 -60 -7 -85 -15z"/>
<path d="M9050 1127 c0 -108 80 -222 172 -245 26 -7 61 -12 77 -12 28 0 31 3
31 33 0 48 -24 122 -55 169 -33 50 -110 88 -177 88 -48 0 -48 0 -48 -33z"/>
<path d="M5787 1259 c-25 -15 -21 -66 9 -106 14 -18 29 -33 33 -33 13 0 23 67
16 101 -8 35 -33 51 -58 38z"/>
<path d="M5749 1013 c-16 -42 -5 -114 21 -135 29 -24 36 -23 66 8 31 30 27 61
-15 114 -36 45 -58 49 -72 13z"/>
<path d="M4322 1248 c-8 -8 -12 -46 -12 -110 0 -106 3 -110 54 -87 27 13 46
54 46 101 0 34 -25 98 -39 98 -5 0 -15 2 -23 5 -7 3 -19 0 -26 -7z"/>
<path d="M6112 991 l-44 -56 42 -3 c23 -2 44 -1 47 1 2 3 3 30 1 60 l-3 55
-43 -57z"/>
</g>
</svg>
